<svg width="61" height="29" viewBox="0 0 61 29" fill="none" xmlns="http://www.w3.org/2000/svg">
<path d="M4.50488 17.4238V28H0.942383V0.984375H10.9062C13.8626 0.984375 16.1758 1.73893 17.8457 3.24805C19.528 4.75716 20.3691 6.75488 20.3691 9.24121C20.3691 11.8636 19.5465 13.8861 17.9014 15.3086C16.2686 16.7188 13.9245 17.4238 10.8691 17.4238H4.50488ZM4.50488 14.5107H10.9062C12.8112 14.5107 14.2708 14.0654 15.2852 13.1748C16.2995 12.2718 16.8066 10.973 16.8066 9.27832C16.8066 7.67025 16.2995 6.38379 15.2852 5.41895C14.2708 4.4541 12.8792 3.95312 11.1104 3.91602H4.50488V14.5107Z" fill="white"/>
<path d="M36.5488 28C36.3509 27.6042 36.1901 26.8991 36.0664 25.8848C34.4707 27.5423 32.5658 28.3711 30.3516 28.3711C28.3724 28.3711 26.7458 27.8145 25.4717 26.7012C24.21 25.5755 23.5791 24.153 23.5791 22.4336C23.5791 20.3431 24.3708 18.7227 25.9541 17.5723C27.5498 16.4095 29.7887 15.8281 32.6709 15.8281H36.0107V14.251C36.0107 13.0511 35.652 12.0986 34.9346 11.3936C34.2171 10.6761 33.1595 10.3174 31.7617 10.3174C30.5371 10.3174 29.5104 10.6266 28.6816 11.2451C27.8529 11.8636 27.4385 12.612 27.4385 13.4902H23.9873C23.9873 12.4883 24.3398 11.5234 25.0449 10.5957C25.7624 9.6556 26.7272 8.91341 27.9395 8.36914C29.1641 7.82487 30.5062 7.55273 31.9658 7.55273C34.279 7.55273 36.0911 8.13411 37.4023 9.29688C38.7135 10.4473 39.3939 12.0368 39.4434 14.0654V23.3057C39.4434 25.1488 39.6784 26.6146 40.1484 27.7031V28H36.5488ZM30.8525 25.3838C31.9287 25.3838 32.9492 25.1055 33.9141 24.5488C34.8789 23.9922 35.5778 23.2686 36.0107 22.3779V18.2588H33.3203C29.1146 18.2588 27.0117 19.4896 27.0117 21.9512C27.0117 23.0273 27.3704 23.8685 28.0879 24.4746C28.8053 25.0807 29.7269 25.3838 30.8525 25.3838Z" fill="white"/>
<path d="M48.0713 7.92383L48.1826 10.4473C49.7165 8.51758 51.7204 7.55273 54.1943 7.55273C58.4372 7.55273 60.5771 9.94629 60.6143 14.7334V28H57.1816V14.7148C57.1693 13.2676 56.8353 12.1976 56.1797 11.5049C55.5365 10.8122 54.5283 10.4658 53.1553 10.4658C52.042 10.4658 51.0648 10.7627 50.2236 11.3564C49.3825 11.9502 48.7269 12.7295 48.2568 13.6943V28H44.8242V7.92383H48.0713Z" fill="white"/>
</svg>
