{
    "asset" : {
        "generator" : "Khronos glTF Blender I/O v1.3.48",
        "version" : "2.0"
    },
    "scene" : 0,
    "scenes" : [
        {
            "name" : "Scene",
            "nodes" : [
                0
            ]
        }
    ],
    "nodes" : [
        {
            "mesh" : 0,
            "name" : "Cube",
            "rotation" : [
                0,
                0.3039412200450897,
                0,
                0.9526908993721008
            ],
            "scale" : [
                0.19821606576442719,
                0.19821606576442719,
                0.19821606576442719
            ]
        }
    ],
    "materials" : [
        {
            "doubleSided" : true,
            "emissiveFactor" : [
                0,
                0,
                0
            ],
            "name" : "Material",
            "pbrMetallicRoughness" : {
                "baseColorFactor" : [
                    0.800000011920929,
                    0.800000011920929,
                    0.800000011920929,
                    1
                ],
                "metallicFactor" : 0,
                "roughnessFactor" : 0.5
            }
        }
    ],
    "meshes" : [
        {
            "name" : "Cube.001",
            "primitives" : [
                {
                    "attributes" : {
                        "POSITION" : 0,
                        "NORMAL" : 1,
                        "TEXCOORD_0" : 2
                    },
                    "indices" : 3,
                    "material" : 0
                }
            ]
        }
    ],
    "accessors" : [
        {
            "bufferView" : 0,
            "componentType" : 5126,
            "count" : 44492,
            "max" : [
                0.6636132001876831,
                6.236806392669678,
                1.7771718502044678
            ],
            "min" : [
                -1.467220425605774,
                0,
                -1.851151466369629
            ],
            "type" : "VEC3"
        },
        {
            "bufferView" : 1,
            "componentType" : 5126,
            "count" : 44492,
            "type" : "VEC3"
        },
        {
            "bufferView" : 2,
            "componentType" : 5126,
            "count" : 44492,
            "type" : "VEC2"
        },
        {
            "bufferView" : 3,
            "componentType" : 5123,
            "count" : 266832,
            "type" : "SCALAR"
        }
    ],
    "bufferViews" : [
        {
            "buffer" : 0,
            "byteLength" : 533904,
            "byteOffset" : 0
        },
        {
            "buffer" : 0,
            "byteLength" : 533904,
            "byteOffset" : 533904
        },
        {
            "buffer" : 0,
            "byteLength" : 355936,
            "byteOffset" : 1067808
        },
        {
            "buffer" : 0,
            "byteLength" : 533664,
            "byteOffset" : 1423744
        }
    ],
    "buffers" : [
        {
            "byteLength" : 1957408,
            "uri" : "data:application/octet-stream;base64,"
        }
    ]
}
