<svg width="742" height="742" viewBox="0 0 742 742" fill="none" xmlns="http://www.w3.org/2000/svg">
<rect width="742" height="742" fill="#FCFCF2"/>
<line x1="108.916" y1="49.8969" x2="108.916" y2="692.486" stroke="#D9D9D9"/>
<line x1="167.333" y1="49.8969" x2="167.332" y2="692.486" stroke="#D9D9D9"/>
<line x1="225.75" y1="49.8969" x2="225.749" y2="692.486" stroke="#D9D9D9"/>
<line x1="108.916" y1="49.8969" x2="108.916" y2="692.486" stroke="#D9D9D9"/>
<line x1="167.333" y1="49.8969" x2="167.332" y2="692.486" stroke="#D9D9D9"/>
<line x1="225.75" y1="49.8969" x2="225.749" y2="692.486" stroke="#D9D9D9"/>
<line x1="284.167" y1="49.8969" x2="284.167" y2="692.486" stroke="#D9D9D9"/>
<line x1="342.584" y1="49.8969" x2="342.584" y2="692.486" stroke="#D9D9D9"/>
<line x1="401.001" y1="49.8969" x2="401.001" y2="692.486" stroke="#D9D9D9"/>
<line x1="459.418" y1="49.8969" x2="459.418" y2="692.486" stroke="#D9D9D9"/>
<line x1="284.167" y1="49.8969" x2="284.167" y2="692.486" stroke="#D9D9D9"/>
<line x1="342.584" y1="49.8969" x2="342.584" y2="692.486" stroke="#D9D9D9"/>
<line x1="401.001" y1="49.8969" x2="401.001" y2="692.486" stroke="#D9D9D9"/>
<line x1="459.418" y1="49.8969" x2="459.418" y2="692.486" stroke="#D9D9D9"/>
<line x1="517.835" y1="49.8969" x2="517.835" y2="692.486" stroke="#D9D9D9"/>
<line x1="576.253" y1="49.8969" x2="576.253" y2="692.486" stroke="#D9D9D9"/>
<line x1="634.67" y1="49.8969" x2="634.67" y2="692.486" stroke="#D9D9D9"/>
<line x1="517.835" y1="49.8969" x2="517.835" y2="692.486" stroke="#D9D9D9"/>
<line x1="576.253" y1="49.8969" x2="576.253" y2="692.486" stroke="#D9D9D9"/>
<line x1="634.67" y1="49.8969" x2="634.67" y2="692.486" stroke="#D9D9D9"/>
<line x1="49.998" y1="633.569" x2="692.587" y2="633.569" stroke="#D9D9D9"/>
<line x1="49.998" y1="575.152" x2="692.587" y2="575.152" stroke="#D9D9D9"/>
<line x1="49.998" y1="516.734" x2="692.587" y2="516.734" stroke="#D9D9D9"/>
<line x1="49.998" y1="633.569" x2="692.587" y2="633.569" stroke="#D9D9D9"/>
<line x1="49.998" y1="575.152" x2="692.587" y2="575.152" stroke="#D9D9D9"/>
<line x1="49.998" y1="516.734" x2="692.587" y2="516.734" stroke="#D9D9D9"/>
<line x1="49.998" y1="458.317" x2="692.587" y2="458.317" stroke="#D9D9D9"/>
<line x1="49.998" y1="399.9" x2="692.587" y2="399.9" stroke="#D9D9D9"/>
<line x1="49.998" y1="341.483" x2="692.587" y2="341.483" stroke="#D9D9D9"/>
<line x1="49.998" y1="283.066" x2="692.587" y2="283.066" stroke="#D9D9D9"/>
<line x1="49.998" y1="458.317" x2="692.587" y2="458.317" stroke="#D9D9D9"/>
<line x1="49.998" y1="399.9" x2="692.587" y2="399.9" stroke="#D9D9D9"/>
<line x1="49.998" y1="341.483" x2="692.587" y2="341.483" stroke="#D9D9D9"/>
<line x1="49.998" y1="283.066" x2="692.587" y2="283.066" stroke="#D9D9D9"/>
<line x1="49.998" y1="224.649" x2="692.587" y2="224.649" stroke="#D9D9D9"/>
<line x1="49.998" y1="166.231" x2="692.587" y2="166.231" stroke="#D9D9D9"/>
<line x1="49.998" y1="107.814" x2="692.587" y2="107.814" stroke="#D9D9D9"/>
<line x1="49.998" y1="224.649" x2="692.587" y2="224.649" stroke="#D9D9D9"/>
<line x1="49.998" y1="166.231" x2="692.587" y2="166.231" stroke="#D9D9D9"/>
<line x1="49.998" y1="107.814" x2="692.587" y2="107.814" stroke="#D9D9D9"/>
<rect x="50.499" y="50.397" width="641.589" height="641.589" rx="9.5" stroke="#D9D9D9"/>
</svg>
