<svg width="719" height="386" viewBox="0 0 719 386" fill="none" xmlns="http://www.w3.org/2000/svg">
<path d="M171.728 366.779C171.427 369.965 170.251 372.453 168.2 374.244C166.149 376.021 163.422 376.91 160.018 376.91C157.639 376.91 155.54 376.35 153.722 375.229C151.917 374.094 150.522 372.487 149.538 370.409C148.554 368.331 148.041 365.918 148 363.17V360.381C148 357.564 148.499 355.083 149.497 352.937C150.495 350.79 151.924 349.136 153.783 347.974C155.656 346.812 157.816 346.23 160.264 346.23C163.559 346.23 166.211 347.126 168.221 348.917C170.23 350.708 171.399 353.237 171.728 356.505H166.56C166.313 354.358 165.685 352.813 164.673 351.87C163.675 350.913 162.205 350.435 160.264 350.435C158.008 350.435 156.271 351.262 155.055 352.916C153.852 354.557 153.236 356.97 153.209 360.155V362.801C153.209 366.027 153.783 368.488 154.932 370.184C156.094 371.879 157.789 372.727 160.018 372.727C162.055 372.727 163.586 372.269 164.611 371.353C165.637 370.437 166.286 368.912 166.56 366.779H171.728Z" fill="white"/>
<path d="M181.202 376.5H176.219V345H181.202V376.5Z" fill="white"/>
<path d="M191.948 376.5H186.965V354.311H191.948V376.5ZM186.657 348.548C186.657 347.782 186.896 347.146 187.375 346.641C187.867 346.135 188.564 345.882 189.467 345.882C190.369 345.882 191.066 346.135 191.559 346.641C192.051 347.146 192.297 347.782 192.297 348.548C192.297 349.3 192.051 349.929 191.559 350.435C191.066 350.927 190.369 351.173 189.467 351.173C188.564 351.173 187.867 350.927 187.375 350.435C186.896 349.929 186.657 349.3 186.657 348.548Z" fill="white"/>
<path d="M206.509 372.932C207.753 372.932 208.785 372.569 209.605 371.845C210.426 371.12 210.863 370.225 210.918 369.158H215.614C215.56 370.539 215.129 371.831 214.322 373.034C213.516 374.224 212.422 375.167 211.041 375.864C209.66 376.562 208.17 376.91 206.57 376.91C203.467 376.91 201.006 375.905 199.188 373.896C197.369 371.886 196.46 369.11 196.46 365.569V365.057C196.46 361.68 197.362 358.979 199.167 356.956C200.972 354.919 203.433 353.9 206.55 353.9C209.188 353.9 211.335 354.673 212.989 356.218C214.657 357.749 215.532 359.766 215.614 362.268H210.918C210.863 360.996 210.426 359.95 209.605 359.13C208.799 358.31 207.767 357.899 206.509 357.899C204.896 357.899 203.651 358.487 202.776 359.663C201.901 360.825 201.457 362.596 201.443 364.975V365.774C201.443 368.181 201.874 369.979 202.735 371.168C203.61 372.344 204.868 372.932 206.509 372.932Z" fill="white"/>
<path d="M226.586 366.984L224.371 369.261V376.5H219.388V345H224.371V363.17L225.93 361.222L232.062 354.311H238.05L229.806 363.56L238.932 376.5H233.169L226.586 366.984Z" fill="white"/>
<path d="M265.038 376.5C264.819 376.076 264.628 375.386 264.464 374.429C262.878 376.083 260.937 376.91 258.64 376.91C256.411 376.91 254.593 376.274 253.185 375.003C251.776 373.731 251.072 372.159 251.072 370.286C251.072 367.921 251.947 366.109 253.697 364.852C255.461 363.58 257.977 362.944 261.244 362.944H264.3V361.488C264.3 360.34 263.979 359.424 263.336 358.74C262.693 358.043 261.716 357.694 260.403 357.694C259.269 357.694 258.339 357.981 257.614 358.556C256.89 359.116 256.527 359.834 256.527 360.709H251.544C251.544 359.492 251.947 358.357 252.754 357.305C253.561 356.238 254.654 355.404 256.035 354.803C257.43 354.201 258.981 353.9 260.69 353.9C263.288 353.9 265.359 354.557 266.904 355.869C268.449 357.168 269.242 359 269.283 361.365V371.373C269.283 373.369 269.563 374.962 270.124 376.151V376.5H265.038ZM259.562 372.911C260.547 372.911 261.47 372.672 262.331 372.193C263.206 371.715 263.862 371.072 264.3 370.266V366.082H261.613C259.768 366.082 258.38 366.403 257.45 367.046C256.521 367.688 256.056 368.598 256.056 369.773C256.056 370.73 256.37 371.496 256.999 372.07C257.642 372.631 258.496 372.911 259.562 372.911Z" fill="white"/>
<path d="M279.127 354.311L279.271 356.874C280.911 354.892 283.064 353.9 285.73 353.9C290.352 353.9 292.703 356.546 292.785 361.837V376.5H287.802V362.124C287.802 360.716 287.494 359.677 286.879 359.007C286.277 358.323 285.286 357.981 283.905 357.981C281.896 357.981 280.398 358.891 279.414 360.709V376.5H274.431V354.311H279.127Z" fill="white"/>
<path d="M305.644 369.363L310.155 354.311H315.467L306.648 379.863C305.295 383.596 302.998 385.462 299.758 385.462C299.033 385.462 298.233 385.339 297.358 385.093V381.237L298.302 381.299C299.56 381.299 300.503 381.066 301.132 380.602C301.774 380.15 302.28 379.385 302.649 378.305L303.367 376.397L295.574 354.311H300.947L305.644 369.363Z" fill="white"/>
<path d="M337.841 369.63L341.368 354.311H346.229L340.179 376.5H336.077L331.319 361.263L326.644 376.5H322.542L316.472 354.311H321.332L324.921 369.466L329.474 354.311H333.227L337.841 369.63Z" fill="white"/>
<path d="M354.473 356.73C356.1 354.844 358.157 353.9 360.646 353.9C365.376 353.9 367.775 356.601 367.844 362.001V376.5H362.86V362.186C362.86 360.654 362.525 359.574 361.855 358.945C361.199 358.303 360.229 357.981 358.943 357.981C356.947 357.981 355.457 358.87 354.473 360.647V376.5H349.489V345H354.473V356.73Z" fill="white"/>
<path d="M382.671 376.91C379.513 376.91 376.949 375.919 374.98 373.937C373.025 371.94 372.048 369.288 372.048 365.979V365.364C372.048 363.149 372.472 361.174 373.319 359.438C374.181 357.688 375.384 356.327 376.929 355.356C378.474 354.386 380.196 353.9 382.097 353.9C385.118 353.9 387.449 354.864 389.09 356.792C390.744 358.72 391.571 361.447 391.571 364.975V366.984H377.072C377.223 368.816 377.831 370.266 378.897 371.332C379.978 372.398 381.331 372.932 382.958 372.932C385.241 372.932 387.101 372.009 388.536 370.163L391.223 372.727C390.334 374.053 389.145 375.085 387.654 375.823C386.178 376.548 384.517 376.91 382.671 376.91ZM382.076 357.899C380.709 357.899 379.602 358.378 378.754 359.335C377.92 360.292 377.387 361.625 377.154 363.334H386.649V362.965C386.54 361.297 386.096 360.039 385.316 359.191C384.537 358.33 383.457 357.899 382.076 357.899Z" fill="white"/>
<path d="M407.075 358.863C406.419 358.754 405.742 358.699 405.045 358.699C402.762 358.699 401.224 359.574 400.431 361.324V376.5H395.447V354.311H400.205L400.328 356.792C401.531 354.864 403.199 353.9 405.332 353.9C406.043 353.9 406.631 353.996 407.096 354.188L407.075 358.863Z" fill="white"/>
<path d="M419.585 376.91C416.427 376.91 413.863 375.919 411.895 373.937C409.939 371.94 408.962 369.288 408.962 365.979V365.364C408.962 363.149 409.386 361.174 410.233 359.438C411.095 357.688 412.298 356.327 413.843 355.356C415.388 354.386 417.11 353.9 419.011 353.9C422.032 353.9 424.363 354.864 426.004 356.792C427.658 358.72 428.485 361.447 428.485 364.975V366.984H413.986C414.137 368.816 414.745 370.266 415.812 371.332C416.892 372.398 418.245 372.932 419.872 372.932C422.155 372.932 424.015 372.009 425.45 370.163L428.137 372.727C427.248 374.053 426.059 375.085 424.568 375.823C423.092 376.548 421.431 376.91 419.585 376.91ZM418.99 357.899C417.623 357.899 416.516 358.378 415.668 359.335C414.834 360.292 414.301 361.625 414.068 363.334H423.563V362.965C423.454 361.297 423.01 360.039 422.23 359.191C421.451 358.33 420.371 357.899 418.99 357.899Z" fill="white"/>
<path d="M449.075 348.917V354.311H452.992V358.002H449.075V370.389C449.075 371.236 449.239 371.852 449.567 372.234C449.909 372.604 450.511 372.788 451.372 372.788C451.946 372.788 452.527 372.72 453.115 372.583V376.438C451.98 376.753 450.887 376.91 449.834 376.91C446.006 376.91 444.092 374.798 444.092 370.573V358.002H440.441V354.311H444.092V348.917H449.075Z" fill="white"/>
<path d="M455.269 365.2C455.269 363.026 455.699 361.071 456.561 359.335C457.422 357.585 458.632 356.245 460.19 355.315C461.749 354.372 463.54 353.9 465.563 353.9C468.558 353.9 470.984 354.864 472.844 356.792C474.717 358.72 475.729 361.276 475.879 364.462L475.899 365.631C475.899 367.818 475.476 369.773 474.628 371.496C473.794 373.219 472.591 374.552 471.019 375.495C469.46 376.438 467.655 376.91 465.604 376.91C462.474 376.91 459.965 375.871 458.078 373.793C456.205 371.701 455.269 368.919 455.269 365.446V365.2ZM460.252 365.631C460.252 367.914 460.724 369.705 461.667 371.004C462.61 372.289 463.923 372.932 465.604 372.932C467.286 372.932 468.592 372.275 469.521 370.963C470.465 369.65 470.937 367.729 470.937 365.2C470.937 362.958 470.451 361.181 469.48 359.868C468.523 358.556 467.218 357.899 465.563 357.899C463.937 357.899 462.645 358.549 461.688 359.848C460.73 361.133 460.252 363.061 460.252 365.631Z" fill="white"/>
<path d="M510.045 365.631C510.045 369.076 509.272 371.817 507.728 373.854C506.196 375.892 504.084 376.91 501.391 376.91C498.793 376.91 496.77 375.974 495.32 374.101L495.074 376.5H490.562V345H495.546V356.443C496.981 354.748 498.916 353.9 501.35 353.9C504.057 353.9 506.183 354.905 507.728 356.915C509.272 358.925 510.045 361.734 510.045 365.344V365.631ZM505.062 365.2C505.062 362.794 504.638 360.989 503.79 359.786C502.942 358.583 501.712 357.981 500.099 357.981C497.938 357.981 496.421 358.925 495.546 360.812V369.958C496.435 371.886 497.966 372.85 500.14 372.85C501.698 372.85 502.901 372.269 503.749 371.106C504.597 369.944 505.034 368.188 505.062 365.836V365.2Z" fill="white"/>
<path d="M524.011 376.91C520.853 376.91 518.289 375.919 516.32 373.937C514.365 371.94 513.388 369.288 513.388 365.979V365.364C513.388 363.149 513.812 361.174 514.659 359.438C515.521 357.688 516.724 356.327 518.269 355.356C519.813 354.386 521.536 353.9 523.437 353.9C526.458 353.9 528.789 354.864 530.43 356.792C532.084 358.72 532.911 361.447 532.911 364.975V366.984H518.412C518.562 368.816 519.171 370.266 520.237 371.332C521.317 372.398 522.671 372.932 524.298 372.932C526.581 372.932 528.44 372.009 529.876 370.163L532.562 372.727C531.674 374.053 530.484 375.085 528.994 375.823C527.518 376.548 525.856 376.91 524.011 376.91ZM523.416 357.899C522.049 357.899 520.941 358.378 520.094 359.335C519.26 360.292 518.727 361.625 518.494 363.334H527.989V362.965C527.88 361.297 527.436 360.039 526.656 359.191C525.877 358.33 524.797 357.899 523.416 357.899Z" fill="white"/>
<path d="M535.926 365.241C535.926 361.796 536.732 359.048 538.346 356.997C539.973 354.933 542.126 353.9 544.806 353.9C547.335 353.9 549.324 354.782 550.773 356.546L550.999 354.311H555.49V375.823C555.49 378.735 554.581 381.032 552.763 382.714C550.958 384.396 548.518 385.236 545.441 385.236C543.814 385.236 542.222 384.895 540.663 384.211C539.118 383.541 537.942 382.659 537.136 381.565L539.494 378.571C541.025 380.39 542.912 381.299 545.154 381.299C546.809 381.299 548.114 380.848 549.071 379.945C550.028 379.057 550.507 377.744 550.507 376.008V374.511C549.071 376.11 547.157 376.91 544.765 376.91C542.167 376.91 540.041 375.878 538.387 373.813C536.746 371.749 535.926 368.892 535.926 365.241ZM540.889 365.672C540.889 367.9 541.34 369.657 542.242 370.942C543.158 372.214 544.423 372.85 546.036 372.85C548.046 372.85 549.536 371.988 550.507 370.266V360.504C549.563 358.822 548.087 357.981 546.077 357.981C544.437 357.981 543.158 358.631 542.242 359.93C541.34 361.229 540.889 363.143 540.889 365.672Z" fill="white"/>
<path d="M565.929 376.5H560.945V354.311H565.929V376.5ZM560.638 348.548C560.638 347.782 560.877 347.146 561.355 346.641C561.848 346.135 562.545 345.882 563.447 345.882C564.35 345.882 565.047 346.135 565.539 346.641C566.031 347.146 566.277 347.782 566.277 348.548C566.277 349.3 566.031 349.929 565.539 350.435C565.047 350.927 564.35 351.173 563.447 351.173C562.545 351.173 561.848 350.927 561.355 350.435C560.877 349.929 560.638 349.3 560.638 348.548Z" fill="white"/>
<path d="M575.998 354.311L576.142 356.874C577.782 354.892 579.936 353.9 582.602 353.9C587.223 353.9 589.574 356.546 589.656 361.837V376.5H584.673V362.124C584.673 360.716 584.365 359.677 583.75 359.007C583.148 358.323 582.157 357.981 580.776 357.981C578.767 357.981 577.27 358.891 576.285 360.709V376.5H571.302V354.311H575.998Z" fill="white"/>
<path d="M56.1582 246.071H49.8125V257H46.2314V229.984H55.1748C58.2178 229.984 60.5557 230.677 62.1885 232.062C63.8337 233.448 64.6562 235.464 64.6562 238.111C64.6562 239.794 64.1986 241.259 63.2832 242.509C62.3802 243.758 61.1185 244.692 59.498 245.311L65.8438 256.777V257H62.0215L56.1582 246.071ZM49.8125 243.158H55.2861C57.055 243.158 58.459 242.701 59.498 241.785C60.5495 240.87 61.0752 239.645 61.0752 238.111C61.0752 236.441 60.5742 235.161 59.5723 234.271C58.5827 233.38 57.1478 232.928 55.2676 232.916H49.8125V243.158Z" fill="white"/>
<path d="M68.2188 246.776C68.2188 244.81 68.6022 243.041 69.3691 241.47C70.1484 239.899 71.2246 238.687 72.5977 237.833C73.9831 236.979 75.5602 236.553 77.3291 236.553C80.0628 236.553 82.2708 237.499 83.9531 239.392C85.6478 241.284 86.4951 243.801 86.4951 246.943V247.185C86.4951 249.139 86.1178 250.896 85.3633 252.454C84.6211 254 83.5511 255.206 82.1533 256.072C80.7679 256.938 79.1722 257.371 77.3662 257.371C74.6449 257.371 72.4368 256.425 70.7422 254.532C69.0599 252.64 68.2188 250.135 68.2188 247.018V246.776ZM71.6699 247.185C71.6699 249.411 72.1833 251.199 73.21 252.547C74.249 253.895 75.6344 254.569 77.3662 254.569C79.1104 254.569 80.4958 253.889 81.5225 252.528C82.5492 251.155 83.0625 249.238 83.0625 246.776C83.0625 244.575 82.5368 242.793 81.4854 241.433C80.4463 240.06 79.0609 239.373 77.3291 239.373C75.6344 239.373 74.2676 240.047 73.2285 241.396C72.1895 242.744 71.6699 244.674 71.6699 247.185Z" fill="white"/>
<path d="M95.457 232.062V236.924H99.2051V239.577H95.457V252.027C95.457 252.831 95.624 253.438 95.958 253.846C96.292 254.242 96.861 254.439 97.665 254.439C98.0609 254.439 98.6051 254.365 99.2979 254.217V257C98.3949 257.247 97.5166 257.371 96.6631 257.371C95.1292 257.371 93.9727 256.907 93.1934 255.979C92.4141 255.052 92.0244 253.734 92.0244 252.027V239.577H88.3691V236.924H92.0244V232.062H95.457Z" fill="white"/>
<path d="M115.626 257C115.428 256.604 115.267 255.899 115.144 254.885C113.548 256.542 111.643 257.371 109.429 257.371C107.45 257.371 105.823 256.814 104.549 255.701C103.287 254.576 102.656 253.153 102.656 251.434C102.656 249.343 103.448 247.723 105.031 246.572C106.627 245.41 108.866 244.828 111.748 244.828H115.088V243.251C115.088 242.051 114.729 241.099 114.012 240.394C113.294 239.676 112.237 239.317 110.839 239.317C109.614 239.317 108.588 239.627 107.759 240.245C106.93 240.864 106.516 241.612 106.516 242.49H103.064C103.064 241.488 103.417 240.523 104.122 239.596C104.84 238.656 105.804 237.913 107.017 237.369C108.241 236.825 109.583 236.553 111.043 236.553C113.356 236.553 115.168 237.134 116.479 238.297C117.791 239.447 118.471 241.037 118.521 243.065V252.306C118.521 254.149 118.756 255.615 119.226 256.703V257H115.626ZM109.93 254.384C111.006 254.384 112.026 254.105 112.991 253.549C113.956 252.992 114.655 252.269 115.088 251.378V247.259H112.397C108.192 247.259 106.089 248.49 106.089 250.951C106.089 252.027 106.448 252.868 107.165 253.475C107.882 254.081 108.804 254.384 109.93 254.384Z" fill="white"/>
<path d="M128.559 232.062V236.924H132.307V239.577H128.559V252.027C128.559 252.831 128.726 253.438 129.06 253.846C129.394 254.242 129.963 254.439 130.767 254.439C131.162 254.439 131.707 254.365 132.399 254.217V257C131.496 257.247 130.618 257.371 129.765 257.371C128.231 257.371 127.074 256.907 126.295 255.979C125.516 255.052 125.126 253.734 125.126 252.027V239.577H121.471V236.924H125.126V232.062H128.559Z" fill="white"/>
<path d="M144.664 257.371C141.943 257.371 139.729 256.48 138.021 254.699C136.314 252.906 135.461 250.512 135.461 247.519V246.888C135.461 244.896 135.838 243.121 136.593 241.562C137.36 239.992 138.424 238.767 139.784 237.889C141.157 236.998 142.642 236.553 144.237 236.553C146.847 236.553 148.876 237.412 150.323 239.132C151.771 240.851 152.494 243.313 152.494 246.517V247.945H138.894C138.943 249.924 139.518 251.526 140.619 252.751C141.732 253.963 143.143 254.569 144.85 254.569C146.062 254.569 147.089 254.322 147.93 253.827C148.771 253.332 149.507 252.677 150.138 251.86L152.234 253.493C150.552 256.078 148.029 257.371 144.664 257.371ZM144.237 239.373C142.852 239.373 141.689 239.88 140.749 240.895C139.809 241.896 139.228 243.307 139.005 245.125H149.062V244.865C148.963 243.121 148.493 241.773 147.651 240.82C146.81 239.855 145.672 239.373 144.237 239.373Z" fill="white"/>
<path fill-rule="evenodd" clip-rule="evenodd" d="M123.192 70.9473C119.821 72.0507 116.605 73.1033 113.631 73.9905C109.662 75.1746 105.484 72.9169 104.3 68.9476C103.116 64.9784 105.374 60.8007 109.343 59.6165C111.621 58.9369 114.341 58.0453 117.368 57.0536C126.895 53.9312 139.449 49.817 150.733 48.208C158.249 47.1362 166.33 46.9615 173.342 49.4768C180.888 52.1837 186.691 57.8525 189.083 66.9072C190.847 73.5847 190.35 79.7974 187.594 85.3048C184.931 90.6274 180.518 94.5715 175.727 97.5907C166.38 103.482 153.341 107.178 141.765 110.392C141.299 110.522 140.836 110.65 140.375 110.778C128.68 114.022 118.48 116.851 111.592 120.74C108.106 122.708 106.293 124.516 105.463 126.025C104.837 127.162 104.446 128.686 105.163 131.268C106.019 132.928 106.844 133.507 107.439 133.792C108.246 134.177 109.609 134.471 111.999 134.263C114.404 134.054 117.274 133.393 120.773 132.395C122.448 131.918 124.174 131.391 126.01 130.83L126.173 130.78C128.046 130.208 130.024 129.605 132.034 129.035C139.843 126.819 149.447 124.665 158.825 126.834C168.852 129.152 177.256 136.029 183.282 148.799C185.05 152.545 183.446 157.015 179.7 158.783C175.954 160.55 171.485 158.947 169.717 155.201C165.243 145.721 160.147 142.535 155.445 141.448C150.093 140.21 143.738 141.306 136.128 143.465C134.283 143.989 132.441 144.55 130.554 145.126L130.338 145.192C128.544 145.74 126.699 146.303 124.888 146.82C121.17 147.88 117.179 148.869 113.3 149.206C109.407 149.545 105.065 149.284 100.965 147.322C96.7025 145.283 93.5097 141.796 91.3535 137.168L91.1459 136.723L90.9983 136.254C89.0294 130.004 89.4281 124.051 92.321 118.794C95.0474 113.839 99.5482 110.314 104.218 107.678C112.775 102.847 124.644 99.5645 135.503 96.5618C136.258 96.353 137.008 96.1456 137.752 95.939C149.893 92.5684 160.61 89.388 167.73 84.9007C171.172 82.7309 173.17 80.6107 174.18 78.5926C175.097 76.7593 175.536 74.3549 174.58 70.738C173.496 66.6314 171.348 64.6974 168.277 63.5958C164.672 62.3026 159.472 62.1137 152.851 63.0578C143.007 64.4614 132.507 67.8982 123.192 70.9473Z" fill="white"/>
<path fill-rule="evenodd" clip-rule="evenodd" d="M86.6528 92C96.0417 92 103.653 84.3888 103.653 75C103.653 65.6112 96.0417 58 86.6528 58C77.264 58 69.6528 65.6112 69.6528 75C69.6528 84.3888 77.264 92 86.6528 92ZM86.6528 102C101.565 102 113.653 89.9117 113.653 75C113.653 60.0883 101.565 48 86.6528 48C71.7411 48 59.6528 60.0883 59.6528 75C59.6528 89.9117 71.7411 102 86.6528 102Z" fill="#FA5E2E"/>
<path d="M77.8995 69.0963C81.6727 64.4099 88.5305 63.6696 93.2169 67.4428C97.9033 71.216 98.6437 78.0738 94.8705 82.7602L44.7118 145.059C40.9386 149.745 34.0808 150.486 29.3944 146.713C24.708 142.939 23.9676 136.081 27.7408 131.395L77.8995 69.0963Z" fill="white"/>
<path d="M58.5222 118.417C62.9288 114.321 69.8219 114.572 73.9184 118.979C78.0149 123.385 77.7636 130.278 73.357 134.375L48.4664 157.514C44.0599 161.611 37.1668 161.36 33.0702 156.953C28.9737 152.546 29.2251 145.653 33.6316 141.557L58.5222 118.417Z" fill="white"/>
<path d="M65.0181 135.58C69.6915 131.791 76.5518 132.507 80.3411 137.181C84.1304 141.854 83.4137 148.714 78.7403 152.504L52.3425 173.908C47.6691 177.697 40.8087 176.98 37.0194 172.307C33.2302 167.633 33.9469 160.773 38.6203 156.984L65.0181 135.58Z" fill="white"/>
<path d="M70.667 152.136C75.3404 148.346 82.2007 149.063 85.99 153.736C89.7793 158.41 89.0626 165.27 84.3892 169.059L70.3793 180.419C65.7059 184.208 58.8456 183.491 55.0563 178.818C51.267 174.145 51.9837 167.284 56.6571 163.495L70.667 152.136Z" fill="white"/>
<path d="M15.7576 111.385C16.0605 105.65 20.9559 101.246 26.6916 101.549C32.4273 101.852 36.8315 106.747 36.5285 112.483L33.9725 160.87C33.6696 166.605 28.7742 171.01 23.0385 170.707C17.3027 170.404 12.8986 165.508 13.2016 159.772L15.7576 111.385Z" fill="white"/>
<path d="M29.7358 129.495C35.0196 122.538 45.118 122.714 50.9087 129.255L75.1472 156.633C80.8536 163.079 79.9759 172.994 73.2261 178.337L52.8588 194.46C46.0139 199.878 36.0061 198.329 31.1193 191.095L16.0087 168.727C14.1572 165.986 13.1671 162.69 13.8931 159.463C16.2499 148.988 23.4618 137.755 29.7358 129.495Z" fill="white"/>
<path d="M612.738 246.747V257.323H609.175V230.308H619.139C622.096 230.308 624.409 231.062 626.079 232.571C627.761 234.08 628.602 236.078 628.602 238.564C628.602 241.187 627.779 243.209 626.134 244.632C624.501 246.042 622.157 246.747 619.102 246.747H612.738ZM612.738 243.834H619.139C621.044 243.834 622.504 243.389 623.518 242.498C624.532 241.595 625.04 240.296 625.04 238.602C625.04 236.993 624.532 235.707 623.518 234.742C622.504 233.777 621.112 233.276 619.343 233.239H612.738V243.834Z" fill="white"/>
<path d="M644.782 257.323C644.584 256.927 644.423 256.222 644.299 255.208C642.704 256.866 640.799 257.694 638.584 257.694C636.605 257.694 634.979 257.138 633.705 256.024C632.443 254.899 631.812 253.476 631.812 251.757C631.812 249.666 632.604 248.046 634.187 246.896C635.783 245.733 638.022 245.151 640.904 245.151H644.244V243.574C644.244 242.374 643.885 241.422 643.167 240.717C642.45 239.999 641.392 239.641 639.995 239.641C638.77 239.641 637.743 239.95 636.915 240.568C636.086 241.187 635.671 241.935 635.671 242.813H632.22C632.22 241.812 632.573 240.847 633.278 239.919C633.995 238.979 634.96 238.237 636.172 237.692C637.397 237.148 638.739 236.876 640.199 236.876C642.512 236.876 644.324 237.457 645.635 238.62C646.946 239.771 647.627 241.36 647.676 243.389V252.629C647.676 254.472 647.911 255.938 648.381 257.026V257.323H644.782ZM639.085 254.707C640.162 254.707 641.182 254.429 642.147 253.872C643.112 253.315 643.811 252.592 644.244 251.701V247.582H641.553C637.347 247.582 635.245 248.813 635.245 251.274C635.245 252.351 635.603 253.192 636.321 253.798C637.038 254.404 637.96 254.707 639.085 254.707Z" fill="white"/>
<path d="M656.304 237.247L656.416 239.771C657.949 237.841 659.953 236.876 662.427 236.876C666.67 236.876 668.81 239.27 668.847 244.057V257.323H665.415V244.038C665.402 242.591 665.068 241.521 664.413 240.828C663.769 240.135 662.761 239.789 661.388 239.789C660.275 239.789 659.298 240.086 658.457 240.68C657.615 241.273 656.96 242.053 656.49 243.018V257.323H653.057V237.247H656.304Z" fill="white"/>
<path fill-rule="evenodd" clip-rule="evenodd" d="M685.949 129.603C684.831 120.319 680.223 112.868 674.257 109.478L678.209 102.522C686.91 107.466 692.551 117.515 693.892 128.647C695.246 139.892 692.296 152.664 683.318 163.546C681.913 165.25 679.391 165.491 677.687 164.086C675.983 162.68 675.742 160.159 677.147 158.455C684.67 149.337 687.053 138.774 685.949 129.603Z" fill="white"/>
<path fill-rule="evenodd" clip-rule="evenodd" d="M701.607 113.741C696.944 102.911 689.508 95.6326 682.939 93.3876L685.526 85.8176C694.92 89.0283 703.733 98.4491 708.955 110.578C714.243 122.861 716.109 138.454 711.052 154.69C710.395 156.799 708.152 157.976 706.043 157.319C703.934 156.662 702.757 154.42 703.414 152.311C707.857 138.046 706.204 124.419 701.607 113.741Z" fill="white"/>
<path fill-rule="evenodd" clip-rule="evenodd" d="M643.233 100C652.622 100 660.233 92.3888 660.233 83C660.233 73.6112 652.622 66 643.233 66C633.844 66 626.233 73.6112 626.233 83C626.233 92.3888 633.844 100 643.233 100ZM643.233 110C658.145 110 670.233 97.9117 670.233 83C670.233 68.0883 658.145 56 643.233 56C628.321 56 616.233 68.0883 616.233 83C616.233 97.9117 628.321 110 643.233 110Z" fill="#FA5E2E"/>
<path d="M688.843 85.1596C692.023 99.1309 683.353 113.074 669.395 116.251C663.373 117.622 657.351 116.754 652.212 114.202L656.661 105.246C659.817 106.813 663.489 107.34 667.176 106.501C675.688 104.563 681.061 96.0251 679.093 87.3789C678.089 82.9681 675.375 79.4094 671.827 77.2386C671.827 77.2386 671.679 75.7337 669.846 71.5359C668.012 67.3381 665.793 64.9949 665.793 64.9949C676.729 65.9399 686.273 73.8658 688.843 85.1596Z" fill="#FA5E2E"/>
<path d="M634.709 77.1574C637.772 72.4904 644.038 71.1896 648.705 74.2519C653.372 77.3143 654.673 83.5802 651.61 88.2472L611.96 148.673C608.898 153.34 602.632 154.641 597.965 151.579C593.298 148.516 591.997 142.25 595.06 137.583L634.709 77.1574Z" fill="white"/>
<path d="M657.505 84.7103C660.81 80.3521 667.022 79.4984 671.38 82.8035C675.739 86.1086 676.592 92.3209 673.287 96.6791L623.761 161.986C620.456 166.344 614.244 167.197 609.886 163.892C605.528 160.587 604.674 154.375 607.979 150.017L657.505 84.7103Z" fill="white"/>
<path d="M634.093 138.861C638.766 135.072 645.627 135.788 649.416 140.462C653.205 145.135 652.488 151.995 647.815 155.785L621.417 177.189C616.744 180.978 609.883 180.261 606.094 175.588C602.305 170.914 603.022 164.054 607.695 160.265L634.093 138.861Z" fill="white"/>
<path d="M618.093 119.861C622.766 116.072 629.627 116.789 633.416 121.462C637.205 126.135 636.488 132.996 631.815 136.785L605.417 158.189C600.744 161.978 593.883 161.261 590.094 156.588C586.305 151.915 587.022 145.054 591.695 141.265L618.093 119.861Z" fill="white"/>
<path d="M640.212 154.495C645.407 151.46 652.079 153.211 655.114 158.406C658.149 163.601 656.398 170.273 651.204 173.308L635.63 182.407C630.435 185.442 623.763 183.691 620.728 178.496C617.693 173.301 619.444 166.629 624.639 163.594L640.212 154.495Z" fill="white"/>
<path d="M580.99 113.775C581.293 108.039 586.189 103.635 591.925 103.938C597.66 104.241 602.064 109.136 601.761 114.872L599.205 163.259C598.902 168.995 594.007 173.399 588.271 173.096C582.536 172.793 578.132 167.897 578.435 162.162L580.99 113.775Z" fill="white"/>
<path d="M594.969 131.884C600.252 124.927 610.351 125.103 616.142 131.644L640.38 159.022C646.086 165.468 645.209 175.383 638.459 180.726L618.092 196.848C611.247 202.267 601.239 200.718 596.352 193.484L581.242 171.116C579.39 168.375 578.4 165.079 579.126 161.852C581.483 151.377 588.695 140.144 594.969 131.884Z" fill="white"/>
<path d="M336.319 254.087H351.775V257H332.107V254.328L346.914 232.916H332.349V229.984H351.182V232.601L336.319 254.087Z" fill="white"/>
<path d="M354.54 246.776C354.54 244.81 354.924 243.041 355.69 241.47C356.47 239.899 357.546 238.687 358.919 237.833C360.304 236.979 361.882 236.553 363.65 236.553C366.384 236.553 368.592 237.499 370.274 239.392C371.969 241.284 372.816 243.801 372.816 246.943V247.185C372.816 249.139 372.439 250.896 371.685 252.454C370.942 254 369.872 255.206 368.475 256.072C367.089 256.938 365.493 257.371 363.688 257.371C360.966 257.371 358.758 256.425 357.063 254.532C355.381 252.64 354.54 250.135 354.54 247.018V246.776ZM357.991 247.185C357.991 249.411 358.505 251.199 359.531 252.547C360.57 253.895 361.956 254.569 363.688 254.569C365.432 254.569 366.817 253.889 367.844 252.528C368.87 251.155 369.384 249.238 369.384 246.776C369.384 244.575 368.858 242.793 367.807 241.433C366.768 240.06 365.382 239.373 363.65 239.373C361.956 239.373 360.589 240.047 359.55 241.396C358.511 242.744 357.991 244.674 357.991 247.185Z" fill="white"/>
<path d="M376.212 246.776C376.212 244.81 376.595 243.041 377.362 241.47C378.142 239.899 379.218 238.687 380.591 237.833C381.976 236.979 383.553 236.553 385.322 236.553C388.056 236.553 390.264 237.499 391.946 239.392C393.641 241.284 394.488 243.801 394.488 246.943V247.185C394.488 249.139 394.111 250.896 393.356 252.454C392.614 254 391.544 255.206 390.146 256.072C388.761 256.938 387.165 257.371 385.359 257.371C382.638 257.371 380.43 256.425 378.735 254.532C377.053 252.64 376.212 250.135 376.212 247.018V246.776ZM379.663 247.185C379.663 249.411 380.176 251.199 381.203 252.547C382.242 253.895 383.628 254.569 385.359 254.569C387.104 254.569 388.489 253.889 389.516 252.528C390.542 251.155 391.056 249.238 391.056 246.776C391.056 244.575 390.53 242.793 389.479 241.433C388.439 240.06 387.054 239.373 385.322 239.373C383.628 239.373 382.261 240.047 381.222 241.396C380.183 242.744 379.663 244.674 379.663 247.185Z" fill="white"/>
<path d="M402.021 236.924L402.114 239.15C403.586 237.419 405.572 236.553 408.07 236.553C410.878 236.553 412.789 237.629 413.804 239.781C414.472 238.816 415.338 238.037 416.401 237.443C417.478 236.85 418.745 236.553 420.205 236.553C424.609 236.553 426.848 238.884 426.922 243.548V257H423.489V243.752C423.489 242.317 423.161 241.247 422.506 240.542C421.85 239.825 420.749 239.466 419.203 239.466C417.929 239.466 416.871 239.849 416.03 240.616C415.189 241.371 414.701 242.391 414.564 243.678V257H411.113V243.845C411.113 240.925 409.685 239.466 406.827 239.466C404.576 239.466 403.036 240.424 402.207 242.342V257H398.774V236.924H402.021Z" fill="white"/>
<path fill-rule="evenodd" clip-rule="evenodd" d="M346.325 135C355.714 135 363.325 127.389 363.325 118C363.325 108.611 355.714 101 346.325 101C336.936 101 329.325 108.611 329.325 118C329.325 127.389 336.936 135 346.325 135ZM346.325 145C361.237 145 373.325 132.911 373.325 118C373.325 103.088 361.237 90.9998 346.325 90.9998C331.414 90.9998 319.325 103.088 319.325 118C319.325 132.911 331.414 145 346.325 145Z" fill="#FA5E2E"/>
<path fill-rule="evenodd" clip-rule="evenodd" d="M423.325 96.9998C432.714 96.9998 440.325 89.3886 440.325 79.9998C440.325 70.6109 432.714 62.9998 423.325 62.9998C413.936 62.9998 406.325 70.6109 406.325 79.9998C406.325 89.3886 413.936 96.9998 423.325 96.9998ZM423.325 107C438.237 107 450.325 94.9114 450.325 79.9998C450.325 65.0881 438.237 52.9998 423.325 52.9998C408.414 52.9998 396.325 65.0881 396.325 79.9998C396.325 94.9114 408.414 107 423.325 107Z" fill="#FA5E2E"/>
<path d="M414.225 74.4853C417.998 69.7988 424.856 69.0585 429.543 72.8317C434.229 76.6049 434.969 83.4627 431.196 88.1491L381.037 150.448C377.264 155.134 370.406 155.875 365.72 152.101C361.034 148.328 360.293 141.47 364.066 136.784L414.225 74.4853Z" fill="white"/>
<path d="M394.848 123.806C399.254 119.71 406.148 119.961 410.244 124.368C414.341 128.774 414.089 135.667 409.683 139.764L384.792 162.903C380.386 167 373.492 166.748 369.396 162.342C365.299 157.935 365.551 151.042 369.957 146.946L394.848 123.806Z" fill="white"/>
<path d="M401.344 140.969C406.017 137.179 412.877 137.896 416.667 142.57C420.456 147.243 419.739 154.103 415.066 157.893L388.668 179.297C383.995 183.086 377.134 182.369 373.345 177.696C369.556 173.022 370.273 166.162 374.946 162.373L401.344 140.969Z" fill="white"/>
<path d="M406.993 157.524C411.666 153.735 418.526 154.452 422.316 159.125C426.105 163.799 425.388 170.659 420.715 174.448L406.705 185.808C402.032 189.597 395.171 188.88 391.382 184.207C387.593 179.534 388.309 172.673 392.983 168.884L406.993 157.524Z" fill="white"/>
<path d="M337.017 119.429C335.53 113.881 338.823 108.178 344.371 106.691C349.919 105.205 355.621 108.497 357.108 114.045L369.649 160.849C371.136 166.397 367.843 172.099 362.295 173.586C356.747 175.073 351.044 171.78 349.558 166.232L337.017 119.429Z" fill="white"/>
<path d="M366.061 134.884C371.345 127.927 381.443 128.103 387.234 134.644L411.472 162.022C417.179 168.468 416.301 178.383 409.551 183.726L389.184 199.848C382.339 205.267 372.331 203.718 367.444 196.484L352.334 174.116C350.482 171.375 349.492 168.079 350.218 164.852C352.575 154.377 359.787 143.144 366.061 134.884Z" fill="white"/>
<path fill-rule="evenodd" clip-rule="evenodd" d="M406.597 11.3305C407.266 9.5169 409.278 8.58891 411.092 9.25776L433.687 17.591C434.579 17.9201 435.299 18.5982 435.681 19.4693C436.063 20.3404 436.074 21.3295 435.712 22.2088L427.318 42.5692C426.581 44.3562 424.535 45.2077 422.748 44.4709C420.961 43.7342 420.109 41.6882 420.846 39.9011L426.551 26.0627C415.292 29.9758 406.652 37.8509 400.511 45.4667C396.888 49.9597 394.199 54.2846 392.419 57.4829C391.53 59.0794 390.872 60.3881 390.44 61.2873C390.225 61.7367 390.066 62.0832 389.963 62.3115C389.912 62.4257 389.875 62.5103 389.852 62.5633L389.828 62.619L389.825 62.626C389.825 62.6266 389.824 62.6272 389.824 62.6278C389.073 64.4075 387.022 65.2431 385.241 64.4933C383.459 63.7432 382.623 61.6908 383.374 59.9093L386.599 61.2677C383.374 59.9093 383.374 59.9081 383.375 59.9067L383.38 59.8941L383.392 59.8662C383.402 59.8435 383.415 59.8125 383.432 59.7735C383.466 59.6956 383.514 59.5855 383.577 59.4453C383.703 59.165 383.887 58.7639 384.13 58.2577C384.616 57.2456 385.338 55.8108 386.303 54.0785C388.228 50.6191 391.133 45.945 395.062 41.0726C401.162 33.5087 409.888 25.2748 421.415 20.5261L408.669 15.8254C406.856 15.1565 405.928 13.1441 406.597 11.3305Z" fill="white"/>
<path fill-rule="evenodd" clip-rule="evenodd" d="M301.714 59.3738C299.907 58.6872 297.885 59.5954 297.199 61.4023L288.644 83.9147C288.306 84.8038 288.345 85.7921 288.751 86.6522C289.157 87.5124 289.895 88.1701 290.797 88.4743L311.663 95.5155C313.495 96.1335 315.481 95.1498 316.099 93.3182C316.717 91.4867 315.733 89.5009 313.901 88.8829L299.719 84.0972C310.064 78.1764 321.677 76.8326 331.453 77.2029C337.221 77.4214 342.248 78.234 345.829 78.992C347.617 79.3703 349.036 79.7334 349.998 79.9984C350.478 80.1308 350.844 80.2386 351.083 80.3112C351.203 80.3476 351.291 80.3751 351.346 80.3926L351.404 80.411L351.411 80.4134C351.412 80.4136 351.413 80.4138 351.413 80.414C353.249 81.0164 355.226 80.0181 355.83 78.1828C356.434 76.3467 355.436 74.3684 353.6 73.7641L352.506 77.0888C353.6 73.7641 353.598 73.7637 353.597 73.7633L353.584 73.759L353.555 73.7496C353.532 73.7421 353.499 73.7318 353.459 73.7189C353.378 73.6933 353.263 73.6575 353.116 73.6129C352.822 73.5236 352.399 73.3991 351.857 73.2499C350.775 72.9517 349.218 72.5543 347.279 72.1437C343.406 71.3239 337.973 70.4448 331.718 70.2079C322.008 69.8402 310.068 71.0139 298.916 76.5879L303.742 63.8889C304.429 62.0819 303.521 60.0605 301.714 59.3738Z" fill="white"/>
</svg>
