<svg width="726" height="386" viewBox="0 0 726 386" fill="none" xmlns="http://www.w3.org/2000/svg">
<path d="M165.728 366.779C165.427 369.965 164.251 372.453 162.2 374.244C160.149 376.021 157.422 376.91 154.018 376.91C151.639 376.91 149.54 376.35 147.722 375.229C145.917 374.094 144.522 372.487 143.538 370.409C142.554 368.331 142.041 365.918 142 363.17V360.381C142 357.564 142.499 355.083 143.497 352.937C144.495 350.79 145.924 349.136 147.783 347.974C149.656 346.812 151.816 346.23 154.264 346.23C157.559 346.23 160.211 347.126 162.221 348.917C164.23 350.708 165.399 353.237 165.728 356.505H160.56C160.313 354.358 159.685 352.813 158.673 351.87C157.675 350.913 156.205 350.435 154.264 350.435C152.008 350.435 150.271 351.262 149.055 352.916C147.852 354.557 147.236 356.97 147.209 360.155V362.801C147.209 366.027 147.783 368.488 148.932 370.184C150.094 371.879 151.789 372.727 154.018 372.727C156.055 372.727 157.586 372.269 158.611 371.353C159.637 370.437 160.286 368.912 160.56 366.779H165.728Z" fill="white"/>
<path d="M175.202 376.5H170.219V345H175.202V376.5Z" fill="white"/>
<path d="M185.948 376.5H180.965V354.311H185.948V376.5ZM180.657 348.548C180.657 347.782 180.896 347.146 181.375 346.641C181.867 346.135 182.564 345.882 183.467 345.882C184.369 345.882 185.066 346.135 185.559 346.641C186.051 347.146 186.297 347.782 186.297 348.548C186.297 349.3 186.051 349.929 185.559 350.435C185.066 350.927 184.369 351.173 183.467 351.173C182.564 351.173 181.867 350.927 181.375 350.435C180.896 349.929 180.657 349.3 180.657 348.548Z" fill="white"/>
<path d="M200.509 372.932C201.753 372.932 202.785 372.569 203.605 371.845C204.426 371.12 204.863 370.225 204.918 369.158H209.614C209.56 370.539 209.129 371.831 208.322 373.034C207.516 374.224 206.422 375.167 205.041 375.864C203.66 376.562 202.17 376.91 200.57 376.91C197.467 376.91 195.006 375.905 193.188 373.896C191.369 371.886 190.46 369.11 190.46 365.569V365.057C190.46 361.68 191.362 358.979 193.167 356.956C194.972 354.919 197.433 353.9 200.55 353.9C203.188 353.9 205.335 354.673 206.989 356.218C208.657 357.749 209.532 359.766 209.614 362.268H204.918C204.863 360.996 204.426 359.95 203.605 359.13C202.799 358.31 201.767 357.899 200.509 357.899C198.896 357.899 197.651 358.487 196.776 359.663C195.901 360.825 195.457 362.596 195.443 364.975V365.774C195.443 368.181 195.874 369.979 196.735 371.168C197.61 372.344 198.868 372.932 200.509 372.932Z" fill="white"/>
<path d="M220.586 366.984L218.371 369.261V376.5H213.388V345H218.371V363.17L219.93 361.222L226.062 354.311H232.05L223.806 363.56L232.932 376.5H227.169L220.586 366.984Z" fill="white"/>
<path d="M259.038 376.5C258.819 376.076 258.628 375.386 258.464 374.429C256.878 376.083 254.937 376.91 252.64 376.91C250.411 376.91 248.593 376.274 247.185 375.003C245.776 373.731 245.072 372.159 245.072 370.286C245.072 367.921 245.947 366.109 247.697 364.852C249.461 363.58 251.977 362.944 255.244 362.944H258.3V361.488C258.3 360.34 257.979 359.424 257.336 358.74C256.693 358.043 255.716 357.694 254.403 357.694C253.269 357.694 252.339 357.981 251.614 358.556C250.89 359.116 250.527 359.834 250.527 360.709H245.544C245.544 359.492 245.947 358.357 246.754 357.305C247.561 356.238 248.654 355.404 250.035 354.803C251.43 354.201 252.981 353.9 254.69 353.9C257.288 353.9 259.359 354.557 260.904 355.869C262.449 357.168 263.242 359 263.283 361.365V371.373C263.283 373.369 263.563 374.962 264.124 376.151V376.5H259.038ZM253.562 372.911C254.547 372.911 255.47 372.672 256.331 372.193C257.206 371.715 257.862 371.072 258.3 370.266V366.082H255.613C253.768 366.082 252.38 366.403 251.45 367.046C250.521 367.688 250.056 368.598 250.056 369.773C250.056 370.73 250.37 371.496 250.999 372.07C251.642 372.631 252.496 372.911 253.562 372.911Z" fill="white"/>
<path d="M273.127 354.311L273.271 356.874C274.911 354.892 277.064 353.9 279.73 353.9C284.352 353.9 286.703 356.546 286.785 361.837V376.5H281.802V362.124C281.802 360.716 281.494 359.677 280.879 359.007C280.277 358.323 279.286 357.981 277.905 357.981C275.896 357.981 274.398 358.891 273.414 360.709V376.5H268.431V354.311H273.127Z" fill="white"/>
<path d="M299.644 369.363L304.155 354.311H309.467L300.648 379.863C299.295 383.596 296.998 385.462 293.758 385.462C293.033 385.462 292.233 385.339 291.358 385.093V381.237L292.302 381.299C293.56 381.299 294.503 381.066 295.132 380.602C295.774 380.15 296.28 379.385 296.649 378.305L297.367 376.397L289.574 354.311H294.947L299.644 369.363Z" fill="white"/>
<path d="M331.841 369.63L335.368 354.311H340.229L334.179 376.5H330.077L325.319 361.263L320.644 376.5H316.542L310.472 354.311H315.332L318.921 369.466L323.474 354.311H327.227L331.841 369.63Z" fill="white"/>
<path d="M348.473 356.73C350.1 354.844 352.157 353.9 354.646 353.9C359.376 353.9 361.775 356.601 361.844 362.001V376.5H356.86V362.186C356.86 360.654 356.525 359.574 355.855 358.945C355.199 358.303 354.229 357.981 352.943 357.981C350.947 357.981 349.457 358.87 348.473 360.647V376.5H343.489V345H348.473V356.73Z" fill="white"/>
<path d="M376.671 376.91C373.513 376.91 370.949 375.919 368.98 373.937C367.025 371.94 366.048 369.288 366.048 365.979V365.364C366.048 363.149 366.472 361.174 367.319 359.438C368.181 357.688 369.384 356.327 370.929 355.356C372.474 354.386 374.196 353.9 376.097 353.9C379.118 353.9 381.449 354.864 383.09 356.792C384.744 358.72 385.571 361.447 385.571 364.975V366.984H371.072C371.223 368.816 371.831 370.266 372.897 371.332C373.978 372.398 375.331 372.932 376.958 372.932C379.241 372.932 381.101 372.009 382.536 370.163L385.223 372.727C384.334 374.053 383.145 375.085 381.654 375.823C380.178 376.548 378.517 376.91 376.671 376.91ZM376.076 357.899C374.709 357.899 373.602 358.378 372.754 359.335C371.92 360.292 371.387 361.625 371.154 363.334H380.649V362.965C380.54 361.297 380.096 360.039 379.316 359.191C378.537 358.33 377.457 357.899 376.076 357.899Z" fill="white"/>
<path d="M401.075 358.863C400.419 358.754 399.742 358.699 399.045 358.699C396.762 358.699 395.224 359.574 394.431 361.324V376.5H389.447V354.311H394.205L394.328 356.792C395.531 354.864 397.199 353.9 399.332 353.9C400.043 353.9 400.631 353.996 401.096 354.188L401.075 358.863Z" fill="white"/>
<path d="M413.585 376.91C410.427 376.91 407.863 375.919 405.895 373.937C403.939 371.94 402.962 369.288 402.962 365.979V365.364C402.962 363.149 403.386 361.174 404.233 359.438C405.095 357.688 406.298 356.327 407.843 355.356C409.388 354.386 411.11 353.9 413.011 353.9C416.032 353.9 418.363 354.864 420.004 356.792C421.658 358.72 422.485 361.447 422.485 364.975V366.984H407.986C408.137 368.816 408.745 370.266 409.812 371.332C410.892 372.398 412.245 372.932 413.872 372.932C416.155 372.932 418.015 372.009 419.45 370.163L422.137 372.727C421.248 374.053 420.059 375.085 418.568 375.823C417.092 376.548 415.431 376.91 413.585 376.91ZM412.99 357.899C411.623 357.899 410.516 358.378 409.668 359.335C408.834 360.292 408.301 361.625 408.068 363.334H417.563V362.965C417.454 361.297 417.01 360.039 416.23 359.191C415.451 358.33 414.371 357.899 412.99 357.899Z" fill="white"/>
<path d="M443.075 348.917V354.311H446.992V358.002H443.075V370.389C443.075 371.236 443.239 371.852 443.567 372.234C443.909 372.604 444.511 372.788 445.372 372.788C445.946 372.788 446.527 372.72 447.115 372.583V376.438C445.98 376.753 444.887 376.91 443.834 376.91C440.006 376.91 438.092 374.798 438.092 370.573V358.002H434.441V354.311H438.092V348.917H443.075Z" fill="white"/>
<path d="M449.269 365.2C449.269 363.026 449.699 361.071 450.561 359.335C451.422 357.585 452.632 356.245 454.19 355.315C455.749 354.372 457.54 353.9 459.563 353.9C462.558 353.9 464.984 354.864 466.844 356.792C468.717 358.72 469.729 361.276 469.879 364.462L469.899 365.631C469.899 367.818 469.476 369.773 468.628 371.496C467.794 373.219 466.591 374.552 465.019 375.495C463.46 376.438 461.655 376.91 459.604 376.91C456.474 376.91 453.965 375.871 452.078 373.793C450.205 371.701 449.269 368.919 449.269 365.446V365.2ZM454.252 365.631C454.252 367.914 454.724 369.705 455.667 371.004C456.61 372.289 457.923 372.932 459.604 372.932C461.286 372.932 462.592 372.275 463.521 370.963C464.465 369.65 464.937 367.729 464.937 365.2C464.937 362.958 464.451 361.181 463.48 359.868C462.523 358.556 461.218 357.899 459.563 357.899C457.937 357.899 456.645 358.549 455.688 359.848C454.73 361.133 454.252 363.061 454.252 365.631Z" fill="white"/>
<path d="M504.045 365.631C504.045 369.076 503.272 371.817 501.728 373.854C500.196 375.892 498.084 376.91 495.391 376.91C492.793 376.91 490.77 375.974 489.32 374.101L489.074 376.5H484.562V345H489.546V356.443C490.981 354.748 492.916 353.9 495.35 353.9C498.057 353.9 500.183 354.905 501.728 356.915C503.272 358.925 504.045 361.734 504.045 365.344V365.631ZM499.062 365.2C499.062 362.794 498.638 360.989 497.79 359.786C496.942 358.583 495.712 357.981 494.099 357.981C491.938 357.981 490.421 358.925 489.546 360.812V369.958C490.435 371.886 491.966 372.85 494.14 372.85C495.698 372.85 496.901 372.269 497.749 371.106C498.597 369.944 499.034 368.188 499.062 365.836V365.2Z" fill="white"/>
<path d="M518.011 376.91C514.853 376.91 512.289 375.919 510.32 373.937C508.365 371.94 507.388 369.288 507.388 365.979V365.364C507.388 363.149 507.812 361.174 508.659 359.438C509.521 357.688 510.724 356.327 512.269 355.356C513.813 354.386 515.536 353.9 517.437 353.9C520.458 353.9 522.789 354.864 524.43 356.792C526.084 358.72 526.911 361.447 526.911 364.975V366.984H512.412C512.562 368.816 513.171 370.266 514.237 371.332C515.317 372.398 516.671 372.932 518.298 372.932C520.581 372.932 522.44 372.009 523.876 370.163L526.562 372.727C525.674 374.053 524.484 375.085 522.994 375.823C521.518 376.548 519.856 376.91 518.011 376.91ZM517.416 357.899C516.049 357.899 514.941 358.378 514.094 359.335C513.26 360.292 512.727 361.625 512.494 363.334H521.989V362.965C521.88 361.297 521.436 360.039 520.656 359.191C519.877 358.33 518.797 357.899 517.416 357.899Z" fill="white"/>
<path d="M529.926 365.241C529.926 361.796 530.732 359.048 532.346 356.997C533.973 354.933 536.126 353.9 538.806 353.9C541.335 353.9 543.324 354.782 544.773 356.546L544.999 354.311H549.49V375.823C549.49 378.735 548.581 381.032 546.763 382.714C544.958 384.396 542.518 385.236 539.441 385.236C537.814 385.236 536.222 384.895 534.663 384.211C533.118 383.541 531.942 382.659 531.136 381.565L533.494 378.571C535.025 380.39 536.912 381.299 539.154 381.299C540.809 381.299 542.114 380.848 543.071 379.945C544.028 379.057 544.507 377.744 544.507 376.008V374.511C543.071 376.11 541.157 376.91 538.765 376.91C536.167 376.91 534.041 375.878 532.387 373.813C530.746 371.749 529.926 368.892 529.926 365.241ZM534.889 365.672C534.889 367.9 535.34 369.657 536.242 370.942C537.158 372.214 538.423 372.85 540.036 372.85C542.046 372.85 543.536 371.988 544.507 370.266V360.504C543.563 358.822 542.087 357.981 540.077 357.981C538.437 357.981 537.158 358.631 536.242 359.93C535.34 361.229 534.889 363.143 534.889 365.672Z" fill="white"/>
<path d="M559.929 376.5H554.945V354.311H559.929V376.5ZM554.638 348.548C554.638 347.782 554.877 347.146 555.355 346.641C555.848 346.135 556.545 345.882 557.447 345.882C558.35 345.882 559.047 346.135 559.539 346.641C560.031 347.146 560.277 347.782 560.277 348.548C560.277 349.3 560.031 349.929 559.539 350.435C559.047 350.927 558.35 351.173 557.447 351.173C556.545 351.173 555.848 350.927 555.355 350.435C554.877 349.929 554.638 349.3 554.638 348.548Z" fill="white"/>
<path d="M569.998 354.311L570.142 356.874C571.782 354.892 573.936 353.9 576.602 353.9C581.223 353.9 583.574 356.546 583.656 361.837V376.5H578.673V362.124C578.673 360.716 578.365 359.677 577.75 359.007C577.148 358.323 576.157 357.981 574.776 357.981C572.767 357.981 571.27 358.891 570.285 360.709V376.5H565.302V354.311H569.998Z" fill="white"/>
<path d="M43.3911 246.071H37.0454V257H33.4644V229.984H42.4077C45.4507 229.984 47.7886 230.677 49.4214 232.062C51.0666 233.448 51.8892 235.464 51.8892 238.111C51.8892 239.794 51.4315 241.259 50.5161 242.509C49.6131 243.758 48.3514 244.692 46.731 245.311L53.0767 256.777V257H49.2544L43.3911 246.071ZM37.0454 243.158H42.519C44.2879 243.158 45.6919 242.701 46.731 241.785C47.7824 240.87 48.3081 239.645 48.3081 238.111C48.3081 236.441 47.8071 235.161 46.8052 234.271C45.8156 233.38 44.3807 232.928 42.5005 232.916H37.0454V243.158Z" fill="white"/>
<path d="M55.4517 246.776C55.4517 244.81 55.8351 243.041 56.6021 241.47C57.3813 239.899 58.4575 238.687 59.8306 237.833C61.216 236.979 62.7931 236.553 64.562 236.553C67.2957 236.553 69.5037 237.499 71.186 239.392C72.8807 241.284 73.728 243.801 73.728 246.943V247.185C73.728 249.139 73.3507 250.896 72.5962 252.454C71.854 254 70.784 255.206 69.3862 256.072C68.0008 256.938 66.4051 257.371 64.5991 257.371C61.8778 257.371 59.6698 256.425 57.9751 254.532C56.2928 252.64 55.4517 250.135 55.4517 247.018V246.776ZM58.9028 247.185C58.9028 249.411 59.4162 251.199 60.4429 252.547C61.4819 253.895 62.8673 254.569 64.5991 254.569C66.3433 254.569 67.7287 253.889 68.7554 252.528C69.7821 251.155 70.2954 249.238 70.2954 246.776C70.2954 244.575 69.7697 242.793 68.7183 241.433C67.6792 240.06 66.2938 239.373 64.562 239.373C62.8673 239.373 61.5005 240.047 60.4614 241.396C59.4224 242.744 58.9028 244.674 58.9028 247.185Z" fill="white"/>
<path d="M82.6899 232.062V236.924H86.438V239.577H82.6899V252.027C82.6899 252.831 82.8569 253.438 83.1909 253.846C83.5249 254.242 84.0939 254.439 84.8979 254.439C85.2938 254.439 85.8381 254.365 86.5308 254.217V257C85.6278 257.247 84.7495 257.371 83.896 257.371C82.3621 257.371 81.2056 256.907 80.4263 255.979C79.647 255.052 79.2573 253.734 79.2573 252.027V239.577H75.6021V236.924H79.2573V232.062H82.6899Z" fill="white"/>
<path d="M102.859 257C102.661 256.604 102.5 255.899 102.376 254.885C100.781 256.542 98.8758 257.371 96.6616 257.371C94.6825 257.371 93.0558 256.814 91.7817 255.701C90.52 254.576 89.8892 253.153 89.8892 251.434C89.8892 249.343 90.6808 247.723 92.2642 246.572C93.8599 245.41 96.0988 244.828 98.981 244.828H102.321V243.251C102.321 242.051 101.962 241.099 101.245 240.394C100.527 239.676 99.4696 239.317 98.0718 239.317C96.8472 239.317 95.8205 239.627 94.9917 240.245C94.1629 240.864 93.7485 241.612 93.7485 242.49H90.2974C90.2974 241.488 90.6499 240.523 91.355 239.596C92.0724 238.656 93.0373 237.913 94.2495 237.369C95.4741 236.825 96.8162 236.553 98.2759 236.553C100.589 236.553 102.401 237.134 103.712 238.297C105.024 239.447 105.704 241.037 105.753 243.065V252.306C105.753 254.149 105.988 255.615 106.458 256.703V257H102.859ZM97.1626 254.384C98.2388 254.384 99.2593 254.105 100.224 253.549C101.189 252.992 101.888 252.269 102.321 251.378V247.259H99.6304C95.4246 247.259 93.3218 248.49 93.3218 250.951C93.3218 252.027 93.6805 252.868 94.3979 253.475C95.1154 254.081 96.0369 254.384 97.1626 254.384Z" fill="white"/>
<path d="M115.792 232.062V236.924H119.54V239.577H115.792V252.027C115.792 252.831 115.958 253.438 116.292 253.846C116.626 254.242 117.195 254.439 118 254.439C118.395 254.439 118.94 254.365 119.632 254.217V257C118.729 257.247 117.851 257.371 116.998 257.371C115.464 257.371 114.307 256.907 113.528 255.979C112.749 255.052 112.359 253.734 112.359 252.027V239.577H108.704V236.924H112.359V232.062H115.792Z" fill="white"/>
<path d="M131.897 257.371C129.176 257.371 126.961 256.48 125.254 254.699C123.547 252.906 122.694 250.512 122.694 247.519V246.888C122.694 244.896 123.071 243.121 123.826 241.562C124.593 239.992 125.656 238.767 127.017 237.889C128.39 236.998 129.875 236.553 131.47 236.553C134.08 236.553 136.109 237.412 137.556 239.132C139.003 240.851 139.727 243.313 139.727 246.517V247.945H126.126C126.176 249.924 126.751 251.526 127.852 252.751C128.965 253.963 130.375 254.569 132.083 254.569C133.295 254.569 134.321 254.322 135.163 253.827C136.004 253.332 136.74 252.677 137.371 251.86L139.467 253.493C137.785 256.078 135.262 257.371 131.897 257.371ZM131.47 239.373C130.085 239.373 128.922 239.88 127.982 240.895C127.042 241.896 126.46 243.307 126.238 245.125H136.294V244.865C136.195 243.121 135.725 241.773 134.884 240.82C134.043 239.855 132.905 239.373 131.47 239.373Z" fill="white"/>
<path fill-rule="evenodd" clip-rule="evenodd" d="M110.425 70.9473C107.054 72.0507 103.838 73.1033 100.864 73.9905C96.8947 75.1746 92.717 72.9169 91.5329 68.9476C90.3487 64.9784 92.6065 60.8007 96.5757 59.6165C98.8536 58.9369 101.574 58.0453 104.6 57.0536C114.128 53.9312 126.682 49.817 137.966 48.208C145.482 47.1362 153.563 46.9615 160.575 49.4768C168.12 52.1837 173.924 57.8525 176.316 66.9072C178.08 73.5847 177.583 79.7974 174.827 85.3048C172.164 90.6274 167.751 94.5715 162.96 97.5907C153.613 103.482 140.574 107.178 128.998 110.392C128.532 110.522 128.069 110.65 127.608 110.778C115.913 114.022 105.713 116.851 98.8251 120.74C95.3391 122.708 93.5258 124.516 92.6958 126.025C92.07 127.162 91.6785 128.686 92.3958 131.268C93.2517 132.928 94.0773 133.507 94.672 133.792C95.4785 134.177 96.8423 134.471 99.2322 134.263C101.636 134.054 104.507 133.393 108.006 132.395C109.681 131.918 111.407 131.391 113.243 130.83L113.406 130.78C115.279 130.208 117.257 129.605 119.267 129.035C127.076 126.819 136.68 124.665 146.057 126.834C156.085 129.152 164.489 136.029 170.515 148.799C172.283 152.545 170.679 157.015 166.933 158.783C163.187 160.55 158.718 158.947 156.95 155.201C152.476 145.721 147.38 142.535 142.678 141.448C137.325 140.21 130.971 141.306 123.361 143.465C121.516 143.989 119.674 144.55 117.787 145.126L117.571 145.192C115.777 145.74 113.932 146.303 112.121 146.82C108.403 147.88 104.412 148.869 100.533 149.206C96.6396 149.545 92.2978 149.284 88.1979 147.322C83.9354 145.283 80.7426 141.796 78.5864 137.168L78.3788 136.723L78.2312 136.254C76.2623 130.004 76.661 124.051 79.5539 118.794C82.2803 113.839 86.7811 110.314 91.4509 107.678C100.008 102.847 111.877 99.5645 122.736 96.5618C123.491 96.353 124.241 96.1456 124.985 95.939C137.125 92.5684 147.842 89.388 154.962 84.9007C158.405 82.7309 160.403 80.6107 161.413 78.5926C162.33 76.7593 162.769 74.3549 161.813 70.738C160.728 66.6314 158.581 64.6974 155.51 63.5958C151.905 62.3026 146.704 62.1137 140.084 63.0578C130.24 64.4614 119.74 67.8982 110.425 70.9473Z" fill="white"/>
<path fill-rule="evenodd" clip-rule="evenodd" d="M73.8857 92C83.2746 92 90.8857 84.3888 90.8857 75C90.8857 65.6112 83.2746 58 73.8857 58C64.4969 58 56.8857 65.6112 56.8857 75C56.8857 84.3888 64.4969 92 73.8857 92ZM73.8857 102C88.7974 102 100.886 89.9117 100.886 75C100.886 60.0883 88.7974 48 73.8857 48C58.9741 48 46.8857 60.0883 46.8857 75C46.8857 89.9117 58.9741 102 73.8857 102Z" fill="#FA5E2E"/>
<path d="M65.1324 69.0963C68.9056 64.4099 75.7634 63.6696 80.4498 67.4428C85.1363 71.216 85.8766 78.0738 82.1034 82.7602L31.9447 145.059C28.1715 149.745 21.3137 150.486 16.6273 146.713C11.9409 142.939 11.2006 136.081 14.9737 131.395L65.1324 69.0963Z" fill="white"/>
<path d="M45.7551 118.417C50.1617 114.321 57.0548 114.572 61.1513 118.979C65.2478 123.385 64.9965 130.278 60.5899 134.375L35.6993 157.514C31.2928 161.611 24.3997 161.36 20.3032 156.953C16.2066 152.546 16.458 145.653 20.8645 141.557L45.7551 118.417Z" fill="white"/>
<path d="M52.251 135.58C56.9244 131.791 63.7847 132.507 67.574 137.181C71.3633 141.854 70.6466 148.714 65.9732 152.504L39.5754 173.908C34.902 177.697 28.0416 176.98 24.2524 172.307C20.4631 167.633 21.1798 160.773 25.8532 156.984L52.251 135.58Z" fill="white"/>
<path d="M57.8999 152.136C62.5733 148.346 69.4336 149.063 73.2229 153.736C77.0122 158.41 76.2955 165.27 71.6221 169.059L57.6122 180.419C52.9388 184.208 46.0785 183.491 42.2892 178.818C38.4999 174.145 39.2166 167.284 43.89 163.495L57.8999 152.136Z" fill="white"/>
<path d="M2.99047 111.385C3.29345 105.65 8.18879 101.246 13.9245 101.549C19.6603 101.852 24.0644 106.747 23.7614 112.483L21.2054 160.87C20.9025 166.605 16.0071 171.01 10.2714 170.707C4.53565 170.404 0.131535 165.508 0.434515 159.772L2.99047 111.385Z" fill="white"/>
<path d="M16.9687 129.495C22.2525 122.538 32.3509 122.714 38.1416 129.255L62.3801 156.633C68.0865 163.079 67.2088 172.994 60.459 178.337L40.0918 194.46C33.2468 199.878 23.239 198.329 18.3522 191.095L3.24163 168.727C1.39009 165.986 0.40002 162.69 1.12603 159.463C3.48279 148.988 10.6947 137.755 16.9687 129.495Z" fill="white"/>
<path d="M619.738 246.747V257.323H616.175V230.308H626.139C629.096 230.308 631.409 231.062 633.079 232.571C634.761 234.08 635.602 236.078 635.602 238.564C635.602 241.187 634.779 243.209 633.134 244.632C631.501 246.042 629.157 246.747 626.102 246.747H619.738ZM619.738 243.834H626.139C628.044 243.834 629.504 243.389 630.518 242.498C631.532 241.595 632.04 240.296 632.04 238.602C632.04 236.993 631.532 235.707 630.518 234.742C629.504 233.777 628.112 233.276 626.343 233.239H619.738V243.834Z" fill="white"/>
<path d="M651.782 257.323C651.584 256.927 651.423 256.222 651.299 255.208C649.704 256.866 647.799 257.694 645.584 257.694C643.605 257.694 641.979 257.138 640.705 256.024C639.443 254.899 638.812 253.476 638.812 251.757C638.812 249.666 639.604 248.046 641.187 246.896C642.783 245.733 645.022 245.151 647.904 245.151H651.244V243.574C651.244 242.374 650.885 241.422 650.167 240.717C649.45 239.999 648.392 239.641 646.995 239.641C645.77 239.641 644.743 239.95 643.915 240.568C643.086 241.187 642.671 241.935 642.671 242.813H639.22C639.22 241.812 639.573 240.847 640.278 239.919C640.995 238.979 641.96 238.237 643.172 237.692C644.397 237.148 645.739 236.876 647.199 236.876C649.512 236.876 651.324 237.457 652.635 238.62C653.946 239.771 654.627 241.36 654.676 243.389V252.629C654.676 254.472 654.911 255.938 655.381 257.026V257.323H651.782ZM646.085 254.707C647.162 254.707 648.182 254.429 649.147 253.872C650.112 253.315 650.811 252.592 651.244 251.701V247.582H648.553C644.347 247.582 642.245 248.813 642.245 251.274C642.245 252.351 642.603 253.192 643.321 253.798C644.038 254.404 644.96 254.707 646.085 254.707Z" fill="white"/>
<path d="M663.304 237.247L663.416 239.771C664.949 237.841 666.953 236.876 669.427 236.876C673.67 236.876 675.81 239.27 675.847 244.057V257.323H672.415V244.038C672.402 242.591 672.068 241.521 671.413 240.828C670.769 240.135 669.761 239.789 668.388 239.789C667.275 239.789 666.298 240.086 665.457 240.68C664.615 241.273 663.96 242.053 663.49 243.018V257.323H660.057V237.247H663.304Z" fill="white"/>
<path fill-rule="evenodd" clip-rule="evenodd" d="M696.964 133.273C696.012 124.951 692.084 118.273 687 115.234L690.368 109C697.783 113.431 702.591 122.438 703.733 132.416C704.887 142.495 702.373 153.943 694.722 163.696C693.524 165.224 691.376 165.44 689.924 164.18C688.471 162.92 688.265 160.66 689.463 159.133C695.874 150.96 697.905 141.493 696.964 133.273Z" fill="white"/>
<path fill-rule="evenodd" clip-rule="evenodd" d="M710.835 119.236C706.772 109.567 700.291 103.069 694.567 101.064L696.821 94.3059C705.008 97.1724 712.688 105.583 717.239 116.412C721.847 127.378 723.473 141.3 719.066 155.795C718.494 157.678 716.539 158.729 714.701 158.143C712.863 157.556 711.837 155.554 712.41 153.671C716.282 140.936 714.841 128.769 710.835 119.236Z" fill="white"/>
<path fill-rule="evenodd" clip-rule="evenodd" d="M649 100C658.389 100 666 92.3888 666 83C666 73.6112 658.389 66 649 66C639.611 66 632 73.6112 632 83C632 92.3888 639.611 100 649 100ZM649 110C663.912 110 676 97.9117 676 83C676 68.0883 663.912 56 649 56C634.088 56 622 68.0883 622 83C622 97.9117 634.088 110 649 110Z" fill="#FA5E2E"/>
<path d="M675.687 112.625C684.013 113.235 691.258 106.979 691.868 98.6527C692.444 90.7823 686.887 83.8786 679.245 82.6305C679.091 82.6054 678.936 82.5825 678.781 82.562C678.781 82.562 678.612 79.5115 678.253 77.5937C677.953 75.9878 677.213 73.5417 677.213 73.5417C677.655 73.5498 678.099 73.5701 678.546 73.6028C691.77 74.5718 701.705 86.078 700.736 99.3025C699.767 112.527 688.261 122.462 675.037 121.493C665.286 120.779 657.324 114.336 654.202 105.701L662.434 102.291C664.297 107.924 669.402 112.164 675.687 112.625Z" fill="#FA5E2E"/>
<path d="M641.709 77.1574C644.772 72.4904 651.038 71.1896 655.705 74.2519C660.372 77.3143 661.673 83.5802 658.61 88.2472L618.96 148.673C615.898 153.34 609.632 154.641 604.965 151.579C600.298 148.516 598.997 142.25 602.06 137.583L641.709 77.1574Z" fill="white"/>
<path d="M668.915 89.7855C672.899 86.038 679.167 86.2298 682.914 90.2139C686.662 94.1981 686.47 100.466 682.486 104.213L622.785 160.369C618.801 164.117 612.533 163.925 608.785 159.941C605.038 155.957 605.23 149.689 609.214 145.942L668.915 89.7855Z" fill="white"/>
<path d="M641.093 138.861C645.766 135.072 652.627 135.788 656.416 140.462C660.205 145.135 659.488 151.995 654.815 155.785L628.417 177.189C623.744 180.978 616.883 180.261 613.094 175.588C609.305 170.914 610.022 164.054 614.695 160.265L641.093 138.861Z" fill="white"/>
<path d="M625.093 119.861C629.766 116.072 636.627 116.789 640.416 121.462C644.205 126.135 643.488 132.996 638.815 136.785L612.417 158.189C607.744 161.978 600.883 161.261 597.094 156.588C593.305 151.915 594.022 145.054 598.695 141.265L625.093 119.861Z" fill="white"/>
<path d="M647.212 154.495C652.407 151.46 659.079 153.211 662.114 158.406C665.149 163.601 663.398 170.273 658.204 173.308L642.63 182.407C637.435 185.442 630.763 183.691 627.728 178.496C624.693 173.301 626.444 166.629 631.639 163.594L647.212 154.495Z" fill="white"/>
<path d="M587.99 113.775C588.293 108.039 593.189 103.635 598.925 103.938C604.66 104.241 609.064 109.136 608.761 114.872L606.205 163.259C605.902 168.995 601.007 173.399 595.271 173.096C589.536 172.793 585.132 167.897 585.435 162.162L587.99 113.775Z" fill="white"/>
<path d="M601.969 131.884C607.252 124.927 617.351 125.103 623.142 131.644L647.38 159.022C653.086 165.468 652.209 175.383 645.459 180.726L625.092 196.848C618.247 202.267 608.239 200.718 603.352 193.484L588.242 171.116C586.39 168.375 585.4 165.079 586.126 161.852C588.483 151.377 595.695 140.144 601.969 131.884Z" fill="white"/>
<path d="M327.319 254.087H342.775V257H323.107V254.328L337.914 232.916H323.349V229.984H342.182V232.601L327.319 254.087Z" fill="white"/>
<path d="M345.54 246.776C345.54 244.81 345.924 243.041 346.69 241.47C347.47 239.899 348.546 238.687 349.919 237.833C351.304 236.979 352.882 236.553 354.65 236.553C357.384 236.553 359.592 237.499 361.274 239.392C362.969 241.284 363.816 243.801 363.816 246.943V247.185C363.816 249.139 363.439 250.896 362.685 252.454C361.942 254 360.872 255.206 359.475 256.072C358.089 256.938 356.493 257.371 354.688 257.371C351.966 257.371 349.758 256.425 348.063 254.532C346.381 252.64 345.54 250.135 345.54 247.018V246.776ZM348.991 247.185C348.991 249.411 349.505 251.199 350.531 252.547C351.57 253.895 352.956 254.569 354.688 254.569C356.432 254.569 357.817 253.889 358.844 252.528C359.87 251.155 360.384 249.238 360.384 246.776C360.384 244.575 359.858 242.793 358.807 241.433C357.768 240.06 356.382 239.373 354.65 239.373C352.956 239.373 351.589 240.047 350.55 241.396C349.511 242.744 348.991 244.674 348.991 247.185Z" fill="white"/>
<path d="M367.212 246.776C367.212 244.81 367.595 243.041 368.362 241.47C369.142 239.899 370.218 238.687 371.591 237.833C372.976 236.979 374.553 236.553 376.322 236.553C379.056 236.553 381.264 237.499 382.946 239.392C384.641 241.284 385.488 243.801 385.488 246.943V247.185C385.488 249.139 385.111 250.896 384.356 252.454C383.614 254 382.544 255.206 381.146 256.072C379.761 256.938 378.165 257.371 376.359 257.371C373.638 257.371 371.43 256.425 369.735 254.532C368.053 252.64 367.212 250.135 367.212 247.018V246.776ZM370.663 247.185C370.663 249.411 371.176 251.199 372.203 252.547C373.242 253.895 374.628 254.569 376.359 254.569C378.104 254.569 379.489 253.889 380.516 252.528C381.542 251.155 382.056 249.238 382.056 246.776C382.056 244.575 381.53 242.793 380.479 241.433C379.439 240.06 378.054 239.373 376.322 239.373C374.628 239.373 373.261 240.047 372.222 241.396C371.183 242.744 370.663 244.674 370.663 247.185Z" fill="white"/>
<path d="M393.021 236.924L393.114 239.15C394.586 237.419 396.572 236.553 399.07 236.553C401.878 236.553 403.789 237.629 404.804 239.781C405.472 238.816 406.338 238.037 407.401 237.443C408.478 236.85 409.745 236.553 411.205 236.553C415.609 236.553 417.848 238.884 417.922 243.548V257H414.489V243.752C414.489 242.317 414.161 241.247 413.506 240.542C412.85 239.825 411.749 239.466 410.203 239.466C408.929 239.466 407.871 239.849 407.03 240.616C406.189 241.371 405.701 242.391 405.564 243.678V257H402.113V243.845C402.113 240.925 400.685 239.466 397.827 239.466C395.576 239.466 394.036 240.424 393.207 242.342V257H389.774V236.924H393.021Z" fill="white"/>
<path fill-rule="evenodd" clip-rule="evenodd" d="M337.325 135C346.714 135 354.325 127.389 354.325 118C354.325 108.611 346.714 101 337.325 101C327.936 101 320.325 108.611 320.325 118C320.325 127.389 327.936 135 337.325 135ZM337.325 145C352.237 145 364.325 132.911 364.325 118C364.325 103.088 352.237 90.9998 337.325 90.9998C322.414 90.9998 310.325 103.088 310.325 118C310.325 132.911 322.414 145 337.325 145Z" fill="#FA5E2E"/>
<path fill-rule="evenodd" clip-rule="evenodd" d="M414.325 96.9998C423.714 96.9998 431.325 89.3886 431.325 79.9998C431.325 70.6109 423.714 62.9998 414.325 62.9998C404.936 62.9998 397.325 70.6109 397.325 79.9998C397.325 89.3886 404.936 96.9998 414.325 96.9998ZM414.325 107C429.237 107 441.325 94.9114 441.325 79.9998C441.325 65.0881 429.237 52.9998 414.325 52.9998C399.414 52.9998 387.325 65.0881 387.325 79.9998C387.325 94.9114 399.414 107 414.325 107Z" fill="#FA5E2E"/>
<path d="M405.225 74.4853C408.998 69.7988 415.856 69.0585 420.543 72.8317C425.229 76.6049 425.969 83.4627 422.196 88.1491L372.037 150.448C368.264 155.134 361.406 155.875 356.72 152.101C352.034 148.328 351.293 141.47 355.066 136.784L405.225 74.4853Z" fill="white"/>
<path d="M385.848 123.806C390.254 119.71 397.148 119.961 401.244 124.368C405.341 128.774 405.089 135.667 400.683 139.764L375.792 162.903C371.386 167 364.492 166.748 360.396 162.342C356.299 157.935 356.551 151.042 360.957 146.946L385.848 123.806Z" fill="white"/>
<path d="M392.344 140.969C397.017 137.179 403.877 137.896 407.667 142.57C411.456 147.243 410.739 154.103 406.066 157.893L379.668 179.297C374.995 183.086 368.134 182.369 364.345 177.696C360.556 173.022 361.273 166.162 365.946 162.373L392.344 140.969Z" fill="white"/>
<path d="M397.993 157.524C402.666 153.735 409.526 154.452 413.316 159.125C417.105 163.799 416.388 170.659 411.715 174.448L397.705 185.808C393.032 189.597 386.171 188.88 382.382 184.207C378.593 179.534 379.309 172.673 383.983 168.884L397.993 157.524Z" fill="white"/>
<path d="M328.017 119.429C326.53 113.881 329.823 108.178 335.371 106.691C340.919 105.205 346.621 108.497 348.108 114.045L360.649 160.849C362.136 166.397 358.843 172.099 353.295 173.586C347.747 175.073 342.044 171.78 340.558 166.232L328.017 119.429Z" fill="white"/>
<path d="M357.061 134.884C362.345 127.927 372.443 128.103 378.234 134.644L402.472 162.022C408.179 168.468 407.301 178.383 400.551 183.726L380.184 199.848C373.339 205.267 363.331 203.718 358.444 196.484L343.334 174.116C341.482 171.375 340.492 168.079 341.218 164.852C343.575 154.377 350.787 143.144 357.061 134.884Z" fill="white"/>
<path fill-rule="evenodd" clip-rule="evenodd" d="M397.597 11.3305C398.266 9.5169 400.278 8.58891 402.092 9.25776L424.687 17.591C425.579 17.9201 426.299 18.5982 426.681 19.4693C427.063 20.3404 427.074 21.3295 426.712 22.2088L418.318 42.5692C417.581 44.3562 415.535 45.2077 413.748 44.4709C411.961 43.7342 411.109 41.6882 411.846 39.9011L417.551 26.0627C406.292 29.9758 397.652 37.8509 391.511 45.4667C387.888 49.9597 385.199 54.2846 383.419 57.4829C382.53 59.0794 381.872 60.3881 381.44 61.2873C381.225 61.7367 381.066 62.0832 380.963 62.3115C380.912 62.4257 380.875 62.5103 380.852 62.5633L380.828 62.619L380.825 62.626C380.825 62.6266 380.824 62.6272 380.824 62.6278C380.073 64.4075 378.022 65.2431 376.241 64.4933C374.459 63.7432 373.623 61.6908 374.374 59.9093L377.599 61.2677C374.374 59.9093 374.374 59.9081 374.375 59.9067L374.38 59.8941L374.392 59.8662C374.402 59.8435 374.415 59.8125 374.432 59.7735C374.466 59.6956 374.514 59.5855 374.577 59.4453C374.703 59.165 374.887 58.7639 375.13 58.2577C375.616 57.2456 376.338 55.8108 377.303 54.0785C379.228 50.6191 382.133 45.945 386.062 41.0726C392.162 33.5087 400.888 25.2748 412.415 20.5261L399.669 15.8254C397.856 15.1565 396.928 13.1441 397.597 11.3305Z" fill="white"/>
<path fill-rule="evenodd" clip-rule="evenodd" d="M292.714 59.3738C290.907 58.6872 288.885 59.5954 288.199 61.4023L279.644 83.9147C279.306 84.8038 279.345 85.7921 279.751 86.6522C280.157 87.5124 280.895 88.1701 281.797 88.4743L302.663 95.5155C304.495 96.1335 306.481 95.1498 307.099 93.3182C307.717 91.4867 306.733 89.5009 304.901 88.8829L290.719 84.0972C301.064 78.1764 312.677 76.8326 322.453 77.2029C328.221 77.4214 333.248 78.234 336.829 78.992C338.617 79.3703 340.036 79.7334 340.998 79.9984C341.478 80.1308 341.844 80.2386 342.083 80.3112C342.203 80.3476 342.291 80.3751 342.346 80.3926L342.404 80.411L342.411 80.4134C342.412 80.4136 342.413 80.4138 342.413 80.414C344.249 81.0164 346.226 80.0181 346.83 78.1828C347.434 76.3467 346.436 74.3684 344.6 73.7641L343.506 77.0888C344.6 73.7641 344.598 73.7637 344.597 73.7633L344.584 73.759L344.555 73.7496C344.532 73.7421 344.499 73.7318 344.459 73.7189C344.378 73.6933 344.263 73.6575 344.116 73.6129C343.822 73.5236 343.399 73.3991 342.857 73.2499C341.775 72.9517 340.218 72.5543 338.279 72.1437C334.406 71.3239 328.973 70.4448 322.718 70.2079C313.008 69.8402 301.068 71.0139 289.916 76.5879L294.742 63.8889C295.429 62.0819 294.521 60.0605 292.714 59.3738Z" fill="white"/>
</svg>
