<svg width="680" height="386" viewBox="0 0 680 386" fill="none" xmlns="http://www.w3.org/2000/svg">
<path d="M171.728 366.779C171.427 369.965 170.251 372.453 168.2 374.244C166.149 376.021 163.422 376.91 160.018 376.91C157.639 376.91 155.54 376.35 153.722 375.229C151.917 374.094 150.522 372.487 149.538 370.409C148.554 368.331 148.041 365.918 148 363.17V360.381C148 357.564 148.499 355.083 149.497 352.937C150.495 350.79 151.924 349.136 153.783 347.974C155.656 346.812 157.816 346.23 160.264 346.23C163.559 346.23 166.211 347.126 168.221 348.917C170.23 350.708 171.399 353.237 171.728 356.505H166.56C166.313 354.358 165.685 352.813 164.673 351.87C163.675 350.913 162.205 350.435 160.264 350.435C158.008 350.435 156.271 351.262 155.055 352.916C153.852 354.557 153.236 356.97 153.209 360.155V362.801C153.209 366.027 153.783 368.488 154.932 370.184C156.094 371.879 157.789 372.727 160.018 372.727C162.055 372.727 163.586 372.269 164.611 371.353C165.637 370.437 166.286 368.912 166.56 366.779H171.728Z" fill="white"/>
<path d="M181.202 376.5H176.219V345H181.202V376.5Z" fill="white"/>
<path d="M191.948 376.5H186.965V354.311H191.948V376.5ZM186.657 348.548C186.657 347.782 186.896 347.146 187.375 346.641C187.867 346.135 188.564 345.882 189.467 345.882C190.369 345.882 191.066 346.135 191.559 346.641C192.051 347.146 192.297 347.782 192.297 348.548C192.297 349.3 192.051 349.929 191.559 350.435C191.066 350.927 190.369 351.173 189.467 351.173C188.564 351.173 187.867 350.927 187.375 350.435C186.896 349.929 186.657 349.3 186.657 348.548Z" fill="white"/>
<path d="M206.509 372.932C207.753 372.932 208.785 372.569 209.605 371.845C210.426 371.12 210.863 370.225 210.918 369.158H215.614C215.56 370.539 215.129 371.831 214.322 373.034C213.516 374.224 212.422 375.167 211.041 375.864C209.66 376.562 208.17 376.91 206.57 376.91C203.467 376.91 201.006 375.905 199.188 373.896C197.369 371.886 196.46 369.11 196.46 365.569V365.057C196.46 361.68 197.362 358.979 199.167 356.956C200.972 354.919 203.433 353.9 206.55 353.9C209.188 353.9 211.335 354.673 212.989 356.218C214.657 357.749 215.532 359.766 215.614 362.268H210.918C210.863 360.996 210.426 359.95 209.605 359.13C208.799 358.31 207.767 357.899 206.509 357.899C204.896 357.899 203.651 358.487 202.776 359.663C201.901 360.825 201.457 362.596 201.443 364.975V365.774C201.443 368.181 201.874 369.979 202.735 371.168C203.61 372.344 204.868 372.932 206.509 372.932Z" fill="white"/>
<path d="M226.586 366.984L224.371 369.261V376.5H219.388V345H224.371V363.17L225.93 361.222L232.062 354.311H238.05L229.806 363.56L238.932 376.5H233.169L226.586 366.984Z" fill="white"/>
<path d="M265.038 376.5C264.819 376.076 264.628 375.386 264.464 374.429C262.878 376.083 260.937 376.91 258.64 376.91C256.411 376.91 254.593 376.274 253.185 375.003C251.776 373.731 251.072 372.159 251.072 370.286C251.072 367.921 251.947 366.109 253.697 364.852C255.461 363.58 257.977 362.944 261.244 362.944H264.3V361.488C264.3 360.34 263.979 359.424 263.336 358.74C262.693 358.043 261.716 357.694 260.403 357.694C259.269 357.694 258.339 357.981 257.614 358.556C256.89 359.116 256.527 359.834 256.527 360.709H251.544C251.544 359.492 251.947 358.357 252.754 357.305C253.561 356.238 254.654 355.404 256.035 354.803C257.43 354.201 258.981 353.9 260.69 353.9C263.288 353.9 265.359 354.557 266.904 355.869C268.449 357.168 269.242 359 269.283 361.365V371.373C269.283 373.369 269.563 374.962 270.124 376.151V376.5H265.038ZM259.562 372.911C260.547 372.911 261.47 372.672 262.331 372.193C263.206 371.715 263.862 371.072 264.3 370.266V366.082H261.613C259.768 366.082 258.38 366.403 257.45 367.046C256.521 367.688 256.056 368.598 256.056 369.773C256.056 370.73 256.37 371.496 256.999 372.07C257.642 372.631 258.496 372.911 259.562 372.911Z" fill="white"/>
<path d="M279.127 354.311L279.271 356.874C280.911 354.892 283.064 353.9 285.73 353.9C290.352 353.9 292.703 356.546 292.785 361.837V376.5H287.802V362.124C287.802 360.716 287.494 359.677 286.879 359.007C286.277 358.323 285.286 357.981 283.905 357.981C281.896 357.981 280.398 358.891 279.414 360.709V376.5H274.431V354.311H279.127Z" fill="white"/>
<path d="M305.644 369.363L310.155 354.311H315.467L306.648 379.863C305.295 383.596 302.998 385.462 299.758 385.462C299.033 385.462 298.233 385.339 297.358 385.093V381.237L298.302 381.299C299.56 381.299 300.503 381.066 301.132 380.602C301.774 380.15 302.28 379.385 302.649 378.305L303.367 376.397L295.574 354.311H300.947L305.644 369.363Z" fill="white"/>
<path d="M337.841 369.63L341.368 354.311H346.229L340.179 376.5H336.077L331.319 361.263L326.644 376.5H322.542L316.472 354.311H321.332L324.921 369.466L329.474 354.311H333.227L337.841 369.63Z" fill="white"/>
<path d="M354.473 356.73C356.1 354.844 358.157 353.9 360.646 353.9C365.376 353.9 367.775 356.601 367.844 362.001V376.5H362.86V362.186C362.86 360.654 362.525 359.574 361.855 358.945C361.199 358.303 360.229 357.981 358.943 357.981C356.947 357.981 355.457 358.87 354.473 360.647V376.5H349.489V345H354.473V356.73Z" fill="white"/>
<path d="M382.671 376.91C379.513 376.91 376.949 375.919 374.98 373.937C373.025 371.94 372.048 369.288 372.048 365.979V365.364C372.048 363.149 372.472 361.174 373.319 359.438C374.181 357.688 375.384 356.327 376.929 355.356C378.474 354.386 380.196 353.9 382.097 353.9C385.118 353.9 387.449 354.864 389.09 356.792C390.744 358.72 391.571 361.447 391.571 364.975V366.984H377.072C377.223 368.816 377.831 370.266 378.897 371.332C379.978 372.398 381.331 372.932 382.958 372.932C385.241 372.932 387.101 372.009 388.536 370.163L391.223 372.727C390.334 374.053 389.145 375.085 387.654 375.823C386.178 376.548 384.517 376.91 382.671 376.91ZM382.076 357.899C380.709 357.899 379.602 358.378 378.754 359.335C377.92 360.292 377.387 361.625 377.154 363.334H386.649V362.965C386.54 361.297 386.096 360.039 385.316 359.191C384.537 358.33 383.457 357.899 382.076 357.899Z" fill="white"/>
<path d="M407.075 358.863C406.419 358.754 405.742 358.699 405.045 358.699C402.762 358.699 401.224 359.574 400.431 361.324V376.5H395.447V354.311H400.205L400.328 356.792C401.531 354.864 403.199 353.9 405.332 353.9C406.043 353.9 406.631 353.996 407.096 354.188L407.075 358.863Z" fill="white"/>
<path d="M419.585 376.91C416.427 376.91 413.863 375.919 411.895 373.937C409.939 371.94 408.962 369.288 408.962 365.979V365.364C408.962 363.149 409.386 361.174 410.233 359.438C411.095 357.688 412.298 356.327 413.843 355.356C415.388 354.386 417.11 353.9 419.011 353.9C422.032 353.9 424.363 354.864 426.004 356.792C427.658 358.72 428.485 361.447 428.485 364.975V366.984H413.986C414.137 368.816 414.745 370.266 415.812 371.332C416.892 372.398 418.245 372.932 419.872 372.932C422.155 372.932 424.015 372.009 425.45 370.163L428.137 372.727C427.248 374.053 426.059 375.085 424.568 375.823C423.092 376.548 421.431 376.91 419.585 376.91ZM418.99 357.899C417.623 357.899 416.516 358.378 415.668 359.335C414.834 360.292 414.301 361.625 414.068 363.334H423.563V362.965C423.454 361.297 423.01 360.039 422.23 359.191C421.451 358.33 420.371 357.899 418.99 357.899Z" fill="white"/>
<path d="M449.075 348.917V354.311H452.992V358.002H449.075V370.389C449.075 371.236 449.239 371.852 449.567 372.234C449.909 372.604 450.511 372.788 451.372 372.788C451.946 372.788 452.527 372.72 453.115 372.583V376.438C451.98 376.753 450.887 376.91 449.834 376.91C446.006 376.91 444.092 374.798 444.092 370.573V358.002H440.441V354.311H444.092V348.917H449.075Z" fill="white"/>
<path d="M455.269 365.2C455.269 363.026 455.699 361.071 456.561 359.335C457.422 357.585 458.632 356.245 460.19 355.315C461.749 354.372 463.54 353.9 465.563 353.9C468.558 353.9 470.984 354.864 472.844 356.792C474.717 358.72 475.729 361.276 475.879 364.462L475.899 365.631C475.899 367.818 475.476 369.773 474.628 371.496C473.794 373.219 472.591 374.552 471.019 375.495C469.46 376.438 467.655 376.91 465.604 376.91C462.474 376.91 459.965 375.871 458.078 373.793C456.205 371.701 455.269 368.919 455.269 365.446V365.2ZM460.252 365.631C460.252 367.914 460.724 369.705 461.667 371.004C462.61 372.289 463.923 372.932 465.604 372.932C467.286 372.932 468.592 372.275 469.521 370.963C470.465 369.65 470.937 367.729 470.937 365.2C470.937 362.958 470.451 361.181 469.48 359.868C468.523 358.556 467.218 357.899 465.563 357.899C463.937 357.899 462.645 358.549 461.688 359.848C460.73 361.133 460.252 363.061 460.252 365.631Z" fill="white"/>
<path d="M510.045 365.631C510.045 369.076 509.272 371.817 507.728 373.854C506.196 375.892 504.084 376.91 501.391 376.91C498.793 376.91 496.77 375.974 495.32 374.101L495.074 376.5H490.562V345H495.546V356.443C496.981 354.748 498.916 353.9 501.35 353.9C504.057 353.9 506.183 354.905 507.728 356.915C509.272 358.925 510.045 361.734 510.045 365.344V365.631ZM505.062 365.2C505.062 362.794 504.638 360.989 503.79 359.786C502.942 358.583 501.712 357.981 500.099 357.981C497.938 357.981 496.421 358.925 495.546 360.812V369.958C496.435 371.886 497.966 372.85 500.14 372.85C501.698 372.85 502.901 372.269 503.749 371.106C504.597 369.944 505.034 368.188 505.062 365.836V365.2Z" fill="white"/>
<path d="M524.011 376.91C520.853 376.91 518.289 375.919 516.32 373.937C514.365 371.94 513.388 369.288 513.388 365.979V365.364C513.388 363.149 513.812 361.174 514.659 359.438C515.521 357.688 516.724 356.327 518.269 355.356C519.813 354.386 521.536 353.9 523.437 353.9C526.458 353.9 528.789 354.864 530.43 356.792C532.084 358.72 532.911 361.447 532.911 364.975V366.984H518.412C518.562 368.816 519.171 370.266 520.237 371.332C521.317 372.398 522.671 372.932 524.298 372.932C526.581 372.932 528.44 372.009 529.876 370.163L532.562 372.727C531.674 374.053 530.484 375.085 528.994 375.823C527.518 376.548 525.856 376.91 524.011 376.91ZM523.416 357.899C522.049 357.899 520.941 358.378 520.094 359.335C519.26 360.292 518.727 361.625 518.494 363.334H527.989V362.965C527.88 361.297 527.436 360.039 526.656 359.191C525.877 358.33 524.797 357.899 523.416 357.899Z" fill="white"/>
<path d="M535.926 365.241C535.926 361.796 536.732 359.048 538.346 356.997C539.973 354.933 542.126 353.9 544.806 353.9C547.335 353.9 549.324 354.782 550.773 356.546L550.999 354.311H555.49V375.823C555.49 378.735 554.581 381.032 552.763 382.714C550.958 384.396 548.518 385.236 545.441 385.236C543.814 385.236 542.222 384.895 540.663 384.211C539.118 383.541 537.942 382.659 537.136 381.565L539.494 378.571C541.025 380.39 542.912 381.299 545.154 381.299C546.809 381.299 548.114 380.848 549.071 379.945C550.028 379.057 550.507 377.744 550.507 376.008V374.511C549.071 376.11 547.157 376.91 544.765 376.91C542.167 376.91 540.041 375.878 538.387 373.813C536.746 371.749 535.926 368.892 535.926 365.241ZM540.889 365.672C540.889 367.9 541.34 369.657 542.242 370.942C543.158 372.214 544.423 372.85 546.036 372.85C548.046 372.85 549.536 371.988 550.507 370.266V360.504C549.563 358.822 548.087 357.981 546.077 357.981C544.437 357.981 543.158 358.631 542.242 359.93C541.34 361.229 540.889 363.143 540.889 365.672Z" fill="white"/>
<path d="M565.929 376.5H560.945V354.311H565.929V376.5ZM560.638 348.548C560.638 347.782 560.877 347.146 561.355 346.641C561.848 346.135 562.545 345.882 563.447 345.882C564.35 345.882 565.047 346.135 565.539 346.641C566.031 347.146 566.277 347.782 566.277 348.548C566.277 349.3 566.031 349.929 565.539 350.435C565.047 350.927 564.35 351.173 563.447 351.173C562.545 351.173 561.848 350.927 561.355 350.435C560.877 349.929 560.638 349.3 560.638 348.548Z" fill="white"/>
<path d="M575.998 354.311L576.142 356.874C577.782 354.892 579.936 353.9 582.602 353.9C587.223 353.9 589.574 356.546 589.656 361.837V376.5H584.673V362.124C584.673 360.716 584.365 359.677 583.75 359.007C583.148 358.323 582.157 357.981 580.776 357.981C578.767 357.981 577.27 358.891 576.285 360.709V376.5H571.302V354.311H575.998Z" fill="white"/>
<path d="M56.1582 246.071H49.8125V257H46.2314V229.984H55.1748C58.2178 229.984 60.5557 230.677 62.1885 232.062C63.8337 233.448 64.6562 235.464 64.6562 238.111C64.6562 239.794 64.1986 241.259 63.2832 242.509C62.3802 243.758 61.1185 244.692 59.498 245.311L65.8438 256.777V257H62.0215L56.1582 246.071ZM49.8125 243.158H55.2861C57.055 243.158 58.459 242.701 59.498 241.785C60.5495 240.87 61.0752 239.645 61.0752 238.111C61.0752 236.441 60.5742 235.161 59.5723 234.271C58.5827 233.38 57.1478 232.928 55.2676 232.916H49.8125V243.158Z" fill="white"/>
<path d="M68.2188 246.776C68.2188 244.81 68.6022 243.041 69.3691 241.47C70.1484 239.899 71.2246 238.687 72.5977 237.833C73.9831 236.979 75.5602 236.553 77.3291 236.553C80.0628 236.553 82.2708 237.499 83.9531 239.392C85.6478 241.284 86.4951 243.801 86.4951 246.943V247.185C86.4951 249.139 86.1178 250.896 85.3633 252.454C84.6211 254 83.5511 255.206 82.1533 256.072C80.7679 256.938 79.1722 257.371 77.3662 257.371C74.6449 257.371 72.4368 256.425 70.7422 254.532C69.0599 252.64 68.2188 250.135 68.2188 247.018V246.776ZM71.6699 247.185C71.6699 249.411 72.1833 251.199 73.21 252.547C74.249 253.895 75.6344 254.569 77.3662 254.569C79.1104 254.569 80.4958 253.889 81.5225 252.528C82.5492 251.155 83.0625 249.238 83.0625 246.776C83.0625 244.575 82.5368 242.793 81.4854 241.433C80.4463 240.06 79.0609 239.373 77.3291 239.373C75.6344 239.373 74.2676 240.047 73.2285 241.396C72.1895 242.744 71.6699 244.674 71.6699 247.185Z" fill="white"/>
<path d="M95.457 232.062V236.924H99.2051V239.577H95.457V252.027C95.457 252.831 95.624 253.438 95.958 253.846C96.292 254.242 96.861 254.439 97.665 254.439C98.0609 254.439 98.6051 254.365 99.2979 254.217V257C98.3949 257.247 97.5166 257.371 96.6631 257.371C95.1292 257.371 93.9727 256.907 93.1934 255.979C92.4141 255.052 92.0244 253.734 92.0244 252.027V239.577H88.3691V236.924H92.0244V232.062H95.457Z" fill="white"/>
<path d="M115.626 257C115.428 256.604 115.267 255.899 115.144 254.885C113.548 256.542 111.643 257.371 109.429 257.371C107.45 257.371 105.823 256.814 104.549 255.701C103.287 254.576 102.656 253.153 102.656 251.434C102.656 249.343 103.448 247.723 105.031 246.572C106.627 245.41 108.866 244.828 111.748 244.828H115.088V243.251C115.088 242.051 114.729 241.099 114.012 240.394C113.294 239.676 112.237 239.317 110.839 239.317C109.614 239.317 108.588 239.627 107.759 240.245C106.93 240.864 106.516 241.612 106.516 242.49H103.064C103.064 241.488 103.417 240.523 104.122 239.596C104.84 238.656 105.804 237.913 107.017 237.369C108.241 236.825 109.583 236.553 111.043 236.553C113.356 236.553 115.168 237.134 116.479 238.297C117.791 239.447 118.471 241.037 118.521 243.065V252.306C118.521 254.149 118.756 255.615 119.226 256.703V257H115.626ZM109.93 254.384C111.006 254.384 112.026 254.105 112.991 253.549C113.956 252.992 114.655 252.269 115.088 251.378V247.259H112.397C108.192 247.259 106.089 248.49 106.089 250.951C106.089 252.027 106.448 252.868 107.165 253.475C107.882 254.081 108.804 254.384 109.93 254.384Z" fill="white"/>
<path d="M128.559 232.062V236.924H132.307V239.577H128.559V252.027C128.559 252.831 128.726 253.438 129.06 253.846C129.394 254.242 129.963 254.439 130.767 254.439C131.162 254.439 131.707 254.365 132.399 254.217V257C131.496 257.247 130.618 257.371 129.765 257.371C128.231 257.371 127.074 256.907 126.295 255.979C125.516 255.052 125.126 253.734 125.126 252.027V239.577H121.471V236.924H125.126V232.062H128.559Z" fill="white"/>
<path d="M144.664 257.371C141.943 257.371 139.729 256.48 138.021 254.699C136.314 252.906 135.461 250.512 135.461 247.519V246.888C135.461 244.896 135.838 243.121 136.593 241.562C137.36 239.992 138.424 238.767 139.784 237.889C141.157 236.998 142.642 236.553 144.237 236.553C146.847 236.553 148.876 237.412 150.323 239.132C151.771 240.851 152.494 243.313 152.494 246.517V247.945H138.894C138.943 249.924 139.518 251.526 140.619 252.751C141.732 253.963 143.143 254.569 144.85 254.569C146.062 254.569 147.089 254.322 147.93 253.827C148.771 253.332 149.507 252.677 150.138 251.86L152.234 253.493C150.552 256.078 148.029 257.371 144.664 257.371ZM144.237 239.373C142.852 239.373 141.689 239.88 140.749 240.895C139.809 241.896 139.228 243.307 139.005 245.125H149.062V244.865C148.963 243.121 148.493 241.773 147.651 240.82C146.81 239.855 145.672 239.373 144.237 239.373Z" fill="white"/>
<path fill-rule="evenodd" clip-rule="evenodd" d="M123.192 70.9473C119.821 72.0507 116.605 73.1033 113.631 73.9905C109.662 75.1746 105.484 72.9169 104.3 68.9476C103.116 64.9784 105.374 60.8007 109.343 59.6165C111.621 58.9369 114.341 58.0453 117.368 57.0536C126.895 53.9312 139.449 49.817 150.733 48.208C158.249 47.1362 166.33 46.9615 173.342 49.4768C180.888 52.1837 186.691 57.8525 189.083 66.9072C190.847 73.5847 190.35 79.7974 187.594 85.3048C184.931 90.6274 180.518 94.5715 175.727 97.5907C166.38 103.482 153.341 107.178 141.765 110.392C141.299 110.522 140.836 110.65 140.375 110.778C128.68 114.022 118.48 116.851 111.592 120.74C108.106 122.708 106.293 124.516 105.463 126.025C104.837 127.162 104.446 128.686 105.163 131.268C106.019 132.928 106.844 133.507 107.439 133.792C108.246 134.177 109.609 134.471 111.999 134.263C114.404 134.054 117.274 133.393 120.773 132.395C122.448 131.918 124.174 131.391 126.01 130.83L126.173 130.78C128.046 130.208 130.024 129.605 132.034 129.035C139.843 126.819 149.447 124.665 158.825 126.834C168.852 129.152 177.256 136.029 183.282 148.799C185.05 152.545 183.446 157.015 179.7 158.783C175.954 160.55 171.485 158.947 169.717 155.201C165.243 145.721 160.147 142.535 155.445 141.448C150.093 140.21 143.738 141.306 136.128 143.465C134.283 143.989 132.441 144.55 130.554 145.126L130.338 145.192C128.544 145.74 126.699 146.303 124.888 146.82C121.17 147.88 117.179 148.869 113.3 149.206C109.407 149.545 105.065 149.284 100.965 147.322C96.7025 145.283 93.5097 141.796 91.3535 137.168L91.1459 136.723L90.9983 136.254C89.0294 130.004 89.4281 124.051 92.321 118.794C95.0474 113.839 99.5482 110.314 104.218 107.678C112.775 102.847 124.644 99.5645 135.503 96.5618C136.258 96.353 137.008 96.1456 137.752 95.939C149.893 92.5684 160.61 89.388 167.73 84.9007C171.172 82.7309 173.17 80.6107 174.18 78.5926C175.097 76.7593 175.536 74.3549 174.58 70.738C173.496 66.6314 171.348 64.6974 168.277 63.5958C164.672 62.3026 159.472 62.1137 152.851 63.0578C143.007 64.4614 132.507 67.8982 123.192 70.9473Z" fill="white"/>
<path fill-rule="evenodd" clip-rule="evenodd" d="M86.6528 92C96.0417 92 103.653 84.3888 103.653 75C103.653 65.6112 96.0417 58 86.6528 58C77.264 58 69.6528 65.6112 69.6528 75C69.6528 84.3888 77.264 92 86.6528 92ZM86.6528 102C101.565 102 113.653 89.9117 113.653 75C113.653 60.0883 101.565 48 86.6528 48C71.7411 48 59.6528 60.0883 59.6528 75C59.6528 89.9117 71.7411 102 86.6528 102Z" fill="#FA5E2E"/>
<path d="M77.8995 69.0963C81.6727 64.4099 88.5305 63.6696 93.2169 67.4428V67.4428C97.9033 71.216 98.6437 78.0738 94.8705 82.7602L44.7118 145.059C40.9386 149.745 34.0808 150.486 29.3944 146.713V146.713C24.708 142.939 23.9676 136.081 27.7408 131.395L77.8995 69.0963Z" fill="white"/>
<path d="M58.5222 118.417C62.9288 114.321 69.8219 114.572 73.9184 118.979V118.979C78.0149 123.385 77.7636 130.278 73.357 134.375L48.4664 157.514C44.0599 161.611 37.1668 161.36 33.0702 156.953V156.953C28.9737 152.546 29.225 145.653 33.6316 141.557L58.5222 118.417Z" fill="white"/>
<path d="M65.0181 135.58C69.6915 131.791 76.5518 132.507 80.3411 137.181V137.181C84.1304 141.854 83.4137 148.714 78.7403 152.504L52.3425 173.908C47.6691 177.697 40.8087 176.98 37.0194 172.307V172.307C33.2302 167.633 33.9469 160.773 38.6203 156.984L65.0181 135.58Z" fill="white"/>
<path d="M70.667 152.136C75.3404 148.346 82.2007 149.063 85.99 153.736V153.736C89.7793 158.41 89.0626 165.27 84.3892 169.059L70.3793 180.419C65.7059 184.208 58.8456 183.491 55.0563 178.818V178.818C51.267 174.145 51.9837 167.284 56.6571 163.495L70.667 152.136Z" fill="white"/>
<path d="M15.7576 111.385C16.0605 105.65 20.9559 101.246 26.6916 101.549V101.549C32.4273 101.852 36.8315 106.747 36.5285 112.483L33.9725 160.87C33.6696 166.605 28.7742 171.01 23.0385 170.707V170.707C17.3027 170.404 12.8986 165.508 13.2016 159.772L15.7576 111.385Z" fill="white"/>
<path d="M29.7358 129.495C35.0196 122.538 45.118 122.714 50.9087 129.255L75.1472 156.633C80.8536 163.079 79.9759 172.994 73.2261 178.337L52.8588 194.46C46.0139 199.878 36.0061 198.329 31.1193 191.095L16.0087 168.727C14.1572 165.986 13.1671 162.69 13.8931 159.463C16.2499 148.988 23.4618 137.755 29.7358 129.495Z" fill="white"/>
<path d="M573.505 246.424V257H569.942V229.984H579.906C582.863 229.984 585.176 230.739 586.846 232.248C588.528 233.757 589.369 235.755 589.369 238.241C589.369 240.864 588.547 242.886 586.901 244.309C585.269 245.719 582.924 246.424 579.869 246.424H573.505ZM573.505 243.511H579.906C581.811 243.511 583.271 243.065 584.285 242.175C585.299 241.272 585.807 239.973 585.807 238.278C585.807 236.67 585.299 235.384 584.285 234.419C583.271 233.454 581.879 232.953 580.11 232.916H573.505V243.511Z" fill="white"/>
<path d="M605.549 257C605.351 256.604 605.19 255.899 605.066 254.885C603.471 256.542 601.566 257.371 599.352 257.371C597.372 257.371 595.746 256.814 594.472 255.701C593.21 254.576 592.579 253.153 592.579 251.434C592.579 249.343 593.371 247.723 594.954 246.572C596.55 245.41 598.789 244.828 601.671 244.828H605.011V243.251C605.011 242.051 604.652 241.099 603.935 240.394C603.217 239.676 602.16 239.317 600.762 239.317C599.537 239.317 598.51 239.627 597.682 240.245C596.853 240.864 596.438 241.612 596.438 242.49H592.987C592.987 241.488 593.34 240.523 594.045 239.596C594.762 238.656 595.727 237.913 596.939 237.369C598.164 236.825 599.506 236.553 600.966 236.553C603.279 236.553 605.091 237.134 606.402 238.297C607.714 239.447 608.394 241.037 608.443 243.065V252.306C608.443 254.149 608.678 255.615 609.148 256.703V257H605.549ZM599.853 254.384C600.929 254.384 601.949 254.105 602.914 253.549C603.879 252.992 604.578 252.269 605.011 251.378V247.259H602.32C598.115 247.259 596.012 248.49 596.012 250.951C596.012 252.027 596.37 252.868 597.088 253.475C597.805 254.081 598.727 254.384 599.853 254.384Z" fill="white"/>
<path d="M617.071 236.924L617.183 239.447C618.716 237.518 620.72 236.553 623.194 236.553C627.437 236.553 629.577 238.946 629.614 243.733V257H626.182V243.715C626.169 242.268 625.835 241.198 625.18 240.505C624.536 239.812 623.528 239.466 622.155 239.466C621.042 239.466 620.065 239.763 619.224 240.356C618.382 240.95 617.727 241.729 617.257 242.694V257H613.824V236.924H617.071Z" fill="white"/>
<path fill-rule="evenodd" clip-rule="evenodd" d="M646.716 129.603C645.598 120.319 640.99 112.868 635.024 109.478L638.976 102.522C647.677 107.466 653.318 117.515 654.659 128.647C656.013 139.892 653.063 152.664 644.085 163.546C642.68 165.25 640.159 165.491 638.454 164.086C636.75 162.68 636.509 160.159 637.914 158.455C645.437 149.337 647.82 138.774 646.716 129.603Z" fill="white"/>
<path fill-rule="evenodd" clip-rule="evenodd" d="M662.374 113.741C657.711 102.911 650.275 95.6326 643.706 93.3876L646.294 85.8176C655.687 89.0283 664.501 98.4491 669.722 110.578C675.01 122.861 676.876 138.454 671.819 154.69C671.162 156.799 668.92 157.976 666.81 157.319C664.701 156.662 663.524 154.42 664.181 152.311C668.624 138.046 666.971 124.419 662.374 113.741Z" fill="white"/>
<path fill-rule="evenodd" clip-rule="evenodd" d="M604 100C613.389 100 621 92.3888 621 83C621 73.6112 613.389 66 604 66C594.611 66 587 73.6112 587 83C587 92.3888 594.611 100 604 100ZM604 110C618.912 110 631 97.9117 631 83C631 68.0883 618.912 56 604 56C589.088 56 577 68.0883 577 83C577 97.9117 589.088 110 604 110Z" fill="#FA5E2E"/>
<path d="M649.61 85.1596C652.79 99.1309 644.12 113.074 630.162 116.251C624.14 117.622 618.118 116.754 612.979 114.202L617.428 105.246C620.584 106.813 624.256 107.34 627.943 106.501C636.455 104.563 641.828 96.0251 639.86 87.3789C638.856 82.9681 636.142 79.4094 632.594 77.2386C632.594 77.2386 632.446 75.7337 630.613 71.5359C628.779 67.3381 626.56 64.9949 626.56 64.9949C637.496 65.9399 647.04 73.8658 649.61 85.1596Z" fill="#FA5E2E"/>
<path d="M595.477 77.1574C598.539 72.4904 604.805 71.1896 609.472 74.2519V74.2519C614.139 77.3143 615.44 83.5802 612.377 88.2472L572.727 148.673C569.665 153.34 563.399 154.641 558.732 151.579V151.579C554.065 148.516 552.764 142.25 555.827 137.583L595.477 77.1574Z" fill="white"/>
<path d="M618.272 84.7103C621.577 80.3521 627.789 79.4984 632.148 82.8035V82.8035C636.506 86.1086 637.359 92.3209 634.054 96.6791L584.528 161.986C581.223 166.344 575.011 167.197 570.653 163.892V163.892C566.295 160.587 565.441 154.375 568.746 150.017L618.272 84.7103Z" fill="white"/>
<path d="M594.86 138.861C599.533 135.072 606.394 135.788 610.183 140.462V140.462C613.972 145.135 613.255 151.995 608.582 155.785L582.184 177.189C577.511 180.978 570.651 180.261 566.861 175.588V175.588C563.072 170.914 563.789 164.054 568.462 160.265L594.86 138.861Z" fill="white"/>
<path d="M578.86 119.861C583.533 116.072 590.394 116.789 594.183 121.462V121.462C597.972 126.135 597.255 132.996 592.582 136.785L566.184 158.189C561.511 161.978 554.651 161.261 550.861 156.588V156.588C547.072 151.915 547.789 145.054 552.462 141.265L578.86 119.861Z" fill="white"/>
<path d="M600.979 154.495C606.174 151.46 612.846 153.211 615.881 158.406V158.406C618.916 163.601 617.166 170.273 611.971 173.308L596.397 182.407C591.202 185.442 584.531 183.691 581.495 178.496V178.496C578.46 173.301 580.211 166.629 585.406 163.594L600.979 154.495Z" fill="white"/>
<path d="M541.758 113.775C542.061 108.039 546.956 103.635 552.692 103.938V103.938C558.427 104.241 562.831 109.136 562.528 114.872L559.973 163.259C559.67 168.995 554.774 173.399 549.038 173.096V173.096C543.303 172.793 538.899 167.897 539.202 162.162L541.758 113.775Z" fill="white"/>
<path d="M555.736 131.884C561.02 124.927 571.118 125.103 576.909 131.644L601.147 159.022C606.854 165.468 605.976 175.383 599.226 180.726L578.859 196.848C572.014 202.267 562.006 200.718 557.119 193.484L542.009 171.116C540.157 168.375 539.167 165.079 539.893 161.852C542.25 151.377 549.462 140.144 555.736 131.884Z" fill="white"/>
<path d="M320.803 254.087H336.259V257H316.591V254.328L331.398 232.916H316.833V229.984H335.666V232.601L320.803 254.087Z" fill="white"/>
<path d="M339.024 246.776C339.024 244.81 339.407 243.041 340.174 241.47C340.954 239.899 342.03 238.687 343.403 237.833C344.788 236.979 346.365 236.553 348.134 236.553C350.868 236.553 353.076 237.499 354.758 239.392C356.453 241.284 357.3 243.801 357.3 246.943V247.185C357.3 249.139 356.923 250.896 356.168 252.454C355.426 254 354.356 255.206 352.958 256.072C351.573 256.938 349.977 257.371 348.171 257.371C345.45 257.371 343.242 256.425 341.547 254.532C339.865 252.64 339.024 250.135 339.024 247.018V246.776ZM342.475 247.185C342.475 249.411 342.988 251.199 344.015 252.547C345.054 253.895 346.44 254.569 348.171 254.569C349.916 254.569 351.301 253.889 352.328 252.528C353.354 251.155 353.868 249.238 353.868 246.776C353.868 244.575 353.342 242.793 352.291 241.433C351.251 240.06 349.866 239.373 348.134 239.373C346.44 239.373 345.073 240.047 344.034 241.396C342.995 242.744 342.475 244.674 342.475 247.185Z" fill="white"/>
<path d="M360.696 246.776C360.696 244.81 361.079 243.041 361.846 241.47C362.625 239.899 363.702 238.687 365.075 237.833C366.46 236.979 368.037 236.553 369.806 236.553C372.54 236.553 374.748 237.499 376.43 239.392C378.125 241.284 378.972 243.801 378.972 246.943V247.185C378.972 249.139 378.595 250.896 377.84 252.454C377.098 254 376.028 255.206 374.63 256.072C373.245 256.938 371.649 257.371 369.843 257.371C367.122 257.371 364.914 256.425 363.219 254.532C361.537 252.64 360.696 250.135 360.696 247.018V246.776ZM364.147 247.185C364.147 249.411 364.66 251.199 365.687 252.547C366.726 253.895 368.111 254.569 369.843 254.569C371.587 254.569 372.973 253.889 374 252.528C375.026 251.155 375.54 249.238 375.54 246.776C375.54 244.575 375.014 242.793 373.962 241.433C372.923 240.06 371.538 239.373 369.806 239.373C368.111 239.373 366.745 240.047 365.706 241.396C364.667 242.744 364.147 244.674 364.147 247.185Z" fill="white"/>
<path d="M386.505 236.924L386.598 239.15C388.07 237.419 390.056 236.553 392.554 236.553C395.362 236.553 397.273 237.629 398.288 239.781C398.956 238.816 399.821 238.037 400.885 237.443C401.961 236.85 403.229 236.553 404.689 236.553C409.093 236.553 411.332 238.884 411.406 243.548V257H407.973V243.752C407.973 242.317 407.645 241.247 406.99 240.542C406.334 239.825 405.233 239.466 403.687 239.466C402.413 239.466 401.355 239.849 400.514 240.616C399.673 241.371 399.184 242.391 399.048 243.678V257H395.597V243.845C395.597 240.925 394.168 239.466 391.311 239.466C389.06 239.466 387.52 240.424 386.691 242.342V257H383.258V236.924H386.505Z" fill="white"/>
<path fill-rule="evenodd" clip-rule="evenodd" d="M330.809 135C340.198 135 347.809 127.389 347.809 118C347.809 108.611 340.198 101 330.809 101C321.42 101 313.809 108.611 313.809 118C313.809 127.389 321.42 135 330.809 135ZM330.809 145C345.721 145 357.809 132.911 357.809 118C357.809 103.088 345.721 90.9998 330.809 90.9998C315.897 90.9998 303.809 103.088 303.809 118C303.809 132.911 315.897 145 330.809 145Z" fill="#FA5E2E"/>
<path fill-rule="evenodd" clip-rule="evenodd" d="M407.809 96.9998C417.198 96.9998 424.809 89.3886 424.809 79.9998C424.809 70.6109 417.198 62.9998 407.809 62.9998C398.42 62.9998 390.809 70.6109 390.809 79.9998C390.809 89.3886 398.42 96.9998 407.809 96.9998ZM407.809 107C422.721 107 434.809 94.9114 434.809 79.9998C434.809 65.0881 422.721 52.9998 407.809 52.9998C392.897 52.9998 380.809 65.0881 380.809 79.9998C380.809 94.9114 392.897 107 407.809 107Z" fill="#FA5E2E"/>
<path d="M398.709 74.4853C402.482 69.7988 409.34 69.0585 414.027 72.8317V72.8317C418.713 76.6049 419.453 83.4627 415.68 88.1491L365.521 150.448C361.748 155.134 354.89 155.875 350.204 152.101V152.101C345.518 148.328 344.777 141.47 348.55 136.784L398.709 74.4853Z" fill="white"/>
<path d="M379.332 123.806C383.738 119.71 390.631 119.961 394.728 124.368V124.368C398.824 128.774 398.573 135.667 394.167 139.764L369.276 162.903C364.869 167 357.976 166.748 353.88 162.342V162.342C349.783 157.935 350.035 151.042 354.441 146.946L379.332 123.806Z" fill="white"/>
<path d="M385.828 140.969C390.501 137.179 397.361 137.896 401.151 142.57V142.57C404.94 147.243 404.223 154.103 399.55 157.893L373.152 179.297C368.479 183.086 361.618 182.369 357.829 177.696V177.696C354.04 173.022 354.756 166.162 359.43 162.373L385.828 140.969Z" fill="white"/>
<path d="M391.477 157.524C396.15 153.735 403.01 154.452 406.8 159.125V159.125C410.589 163.799 409.872 170.659 405.199 174.448L391.189 185.808C386.515 189.597 379.655 188.88 375.866 184.207V184.207C372.077 179.534 372.793 172.673 377.467 168.884L391.477 157.524Z" fill="white"/>
<path d="M321.501 119.429C320.014 113.881 323.307 108.178 328.855 106.691V106.691C334.403 105.205 340.105 108.497 341.592 114.045L354.133 160.849C355.619 166.397 352.327 172.099 346.779 173.586V173.586C341.231 175.073 335.528 171.78 334.042 166.232L321.501 119.429Z" fill="white"/>
<path d="M350.545 134.884C355.829 127.927 365.927 128.103 371.718 134.644L395.956 162.022C401.663 168.468 400.785 178.383 394.035 183.726L373.668 199.848C366.823 205.267 356.815 203.718 351.928 196.484L336.818 174.116C334.966 171.375 333.976 168.079 334.702 164.852C337.059 154.377 344.271 143.144 350.545 134.884Z" fill="white"/>
<path fill-rule="evenodd" clip-rule="evenodd" d="M391.081 11.3305C391.749 9.5169 393.762 8.58891 395.575 9.25776L418.171 17.591C419.063 17.9201 419.783 18.5982 420.165 19.4693C420.547 20.3404 420.558 21.3294 420.196 22.2088L411.802 42.5692C411.065 44.3562 409.019 45.2077 407.232 44.4709C405.445 43.7342 404.593 41.6882 405.33 39.9011L411.035 26.0627C399.776 29.9758 391.136 37.8509 384.995 45.4667C381.372 49.9597 378.683 54.2846 376.903 57.4829C376.014 59.0794 375.356 60.3881 374.924 61.2873C374.709 61.7367 374.55 62.0832 374.447 62.3115C374.396 62.4257 374.359 62.5103 374.336 62.5633L374.312 62.619L374.309 62.626C374.309 62.6266 374.308 62.6272 374.308 62.6278C373.557 64.4075 371.505 65.2431 369.725 64.4933C367.943 63.7432 367.107 61.6908 367.857 59.9093L371.083 61.2677C367.857 59.9093 367.858 59.9081 367.859 59.9067L367.864 59.8941L367.876 59.8662C367.886 59.8435 367.899 59.8125 367.916 59.7735C367.95 59.6956 367.998 59.5855 368.061 59.4453C368.187 59.165 368.371 58.7639 368.614 58.2577C369.1 57.2456 369.822 55.8108 370.787 54.0785C372.712 50.6191 375.617 45.945 379.546 41.0726C385.645 33.5087 394.372 25.2748 405.899 20.5261L393.153 15.8254C391.34 15.1565 390.412 13.1441 391.081 11.3305Z" fill="white"/>
<path fill-rule="evenodd" clip-rule="evenodd" d="M286.198 59.3738C284.391 58.6872 282.369 59.5954 281.683 61.4023L273.128 83.9147C272.79 84.8038 272.828 85.7921 273.234 86.6522C273.641 87.5124 274.379 88.1701 275.28 88.4743L296.147 95.5155C297.979 96.1335 299.965 95.1498 300.583 93.3182C301.201 91.4867 300.217 89.5009 298.385 88.8829L284.203 84.0972C294.548 78.1764 306.161 76.8326 315.937 77.2029C321.705 77.4214 326.732 78.234 330.313 78.992C332.101 79.3703 333.52 79.7334 334.482 79.9984C334.962 80.1308 335.328 80.2386 335.567 80.3112C335.687 80.3476 335.775 80.3751 335.83 80.3926L335.888 80.411L335.895 80.4134C335.896 80.4136 335.897 80.4138 335.897 80.414C337.733 81.0164 339.71 80.0181 340.314 78.1828C340.918 76.3467 339.92 74.3684 338.083 73.7641L336.989 77.0888C338.083 73.7641 338.082 73.7637 338.081 73.7633L338.068 73.759L338.039 73.7496C338.015 73.7421 337.983 73.7318 337.943 73.7189C337.862 73.6933 337.747 73.6575 337.6 73.6129C337.306 73.5236 336.883 73.3991 336.341 73.2499C335.259 72.9517 333.702 72.5543 331.763 72.1437C327.889 71.3239 322.457 70.4448 316.202 70.2079C306.492 69.8402 294.552 71.0139 283.4 76.5879L288.226 63.8889C288.913 62.0819 288.005 60.0605 286.198 59.3738Z" fill="white"/>
</svg>
